<svg width="17" height="16" viewBox="0 0 17 16" fill="none" xmlns="http://www.w3.org/2000/svg">
<path d="M3.25297 6.6147L1.27005 8.59763C0.456849 9.41083 0 10.5138 0 11.6638C0 12.8138 0.456849 13.9168 1.27005 14.73C2.08324 15.5432 3.18618 16 4.33621 16C5.48625 16 6.58918 15.5432 7.40238 14.73L10.0443 12.0865C10.5347 11.5961 10.9003 10.9952 11.1104 10.3342C11.3205 9.67324 11.3689 8.97152 11.2517 8.28796C11.1344 7.60439 10.855 6.95892 10.4366 6.40572C10.0183 5.85252 9.47343 5.40775 8.84766 5.10872L8.00072 5.95565C7.91474 6.04179 7.83996 6.13842 7.77815 6.24326C8.26163 6.38226 8.70048 6.64502 9.05129 7.00559C9.4021 7.36616 9.65274 7.81204 9.77842 8.29915C9.9041 8.78627 9.90048 9.29775 9.76791 9.78303C9.63535 10.2683 9.37842 10.7106 9.02254 11.0662L6.38201 13.7081C5.83962 14.2505 5.10399 14.5552 4.33693 14.5552C3.56988 14.5552 2.83425 14.2505 2.29186 13.7081C1.74947 13.1658 1.44476 12.4301 1.44476 11.6631C1.44476 10.896 1.74947 10.1604 2.29186 9.618L3.43797 8.47333C3.27626 7.86737 3.21379 7.2392 3.25297 6.61326V6.6147Z" fill="#081831"/>
<path d="M5.95701 3.91202C5.46663 4.40247 5.10106 5.00339 4.89098 5.66436C4.6809 6.32532 4.63245 7.02704 4.74968 7.7106C4.86691 8.39417 5.14641 9.03964 5.56472 9.59284C5.98302 10.146 6.52793 10.5908 7.1537 10.8898L8.27379 9.7683C7.78377 9.63686 7.33697 9.37876 6.97829 9.01994C6.61962 8.66111 6.36171 8.21421 6.23047 7.72413C6.09924 7.23405 6.0993 6.71806 6.23066 6.22801C6.36203 5.73796 6.62006 5.29112 6.97882 4.93239L9.61935 2.29042C10.1617 1.74803 10.8974 1.44332 11.6644 1.44332C12.4315 1.44332 13.1671 1.74803 13.7095 2.29042C14.2519 2.8328 14.5566 3.56844 14.5566 4.33549C14.5566 5.10254 14.2519 5.83817 13.7095 6.38056L12.5634 7.52522C12.7253 8.13224 12.7874 8.76094 12.7484 9.3853L14.7313 7.40238C15.5445 6.58918 16.0014 5.48625 16.0014 4.33621C16.0014 3.18618 15.5445 2.08324 14.7313 1.27005C13.9181 0.45685 12.8152 0 11.6651 0C10.5151 0 9.41218 0.45685 8.59898 1.27005L5.95701 3.91202Z" fill="#081831"/>
</svg>
