<svg width="16" height="9" viewBox="0 0 16 9" fill="none" xmlns="http://www.w3.org/2000/svg">
<path d="M14.8894 0.188938L7.99929 6.90537L1.10916 0.188938C0.986054 0.0686954 0.820797 0.00137848 0.648713 0.00137848C0.476628 0.00137848 0.311372 0.0686954 0.188268 0.188938C0.128661 0.247341 0.0813067 0.317049 0.0489791 0.393983C0.0166514 0.470916 0 0.553527 0 0.636976C0 0.720426 0.0166514 0.803036 0.0489791 0.879969C0.0813067 0.956902 0.128661 1.02661 0.188268 1.08501L7.51817 8.23157C7.64689 8.35704 7.81954 8.42726 7.99929 8.42726C8.17905 8.42726 8.3517 8.35704 8.48042 8.23157L15.8103 1.08639C15.8703 1.02795 15.9181 0.958067 15.9506 0.880878C15.9832 0.80369 16 0.720758 16 0.636976C16 0.553195 15.9832 0.470262 15.9506 0.393074C15.9181 0.315885 15.8703 0.246006 15.8103 0.187559C15.6872 0.0673163 15.522 0 15.3499 0C15.1778 0 15.0125 0.0673163 14.8894 0.187559V0.188938Z" fill="white"/>
</svg>
