<svg width="129" height="100" viewBox="0 0 129 100" fill="none" xmlns="http://www.w3.org/2000/svg">
<path d="M1.25977 42.5956C14.4935 30.4136 28.3406 17.5304 41.5743 5.34842C44.0283 3.15741 46.7451 0.703484 50.0755 0.878764C52.0912 0.966405 53.9316 1.93045 55.5968 3.06977C70.9338 13.1484 82.7653 35.5843 92.4934 43.7349C92.0552 59.072 80.7496 74.6719 69.2687 84.7506C65.3249 88.2562 60.8552 91.4989 55.7721 92.9888C52.0035 94.1281 47.8844 94.3034 44.0283 93.6899C32.4597 91.8495 22.7317 83.6989 16.3339 74.0585C9.84853 64.1551 5.4665 53.6383 1.25977 42.5956Z" fill="#081831"/>
<path d="M48.5857 94.6539C47.0958 94.6539 45.5183 94.5663 43.9408 94.3034C33.3363 92.6382 22.9947 85.3641 15.7206 74.3214C9.0599 64.2427 4.59025 53.2877 0.558794 42.8585C0.471154 42.5956 0.558805 42.245 0.734085 42.0697C7.30711 36.0225 14.1431 29.7124 20.8914 23.4023C27.6397 17.0922 34.4756 10.8698 41.0486 4.73494C43.6779 2.28101 46.57 -0.0852792 50.0756 0.00236116C52.3542 0.0900015 54.37 1.22932 56.0351 2.28101C65.325 8.32819 73.2126 18.7574 80.2239 27.9596C84.8688 34.0068 89.1632 39.7911 93.0194 43.0338C93.1947 43.2091 93.2823 43.3843 93.2823 43.6473C92.7564 59.4225 80.8374 75.4607 69.7947 85.1888C66.3767 88.2562 61.6441 91.9371 56.0351 93.6023C53.6688 94.3034 51.2149 94.6539 48.5857 94.6539ZM2.13631 42.7709C6.08013 53.0248 10.4622 63.7169 16.9476 73.5326C24.0464 84.2247 33.9498 91.236 44.2037 92.9011C48.2351 93.5146 52.179 93.3393 55.6846 92.2877C61.0306 90.7101 65.5003 87.1169 68.8306 84.1371C79.5228 74.6719 91.1789 59.2472 91.7924 43.9978C87.8486 40.5798 83.5542 34.9709 78.9969 28.9237C72.0733 19.8091 64.2733 9.46752 55.2464 3.59561C53.7565 2.63157 52.0037 1.57989 50.0756 1.57989C47.0958 1.49225 44.5542 3.68326 42.1003 5.87427C35.5273 11.9214 28.6913 18.2316 21.943 24.5417C15.2824 30.6765 8.6217 36.8113 2.13631 42.7709Z" fill="#081831"/>
<path d="M18.7881 8.7664C19.4016 33.3057 19.5769 57.9326 19.3139 82.4719C19.3139 82.4719 75.2285 82.3843 75.2285 81.6832C75.1409 57.4068 75.4038 33.1304 76.1925 8.94168L18.7881 8.7664Z" fill="white"/>
<path d="M19.226 83.2607C19.0507 83.2607 18.8754 83.173 18.7002 82.9978C18.5249 82.8225 18.5249 82.6472 18.5249 82.4719C18.7878 58.0203 18.6125 33.2181 17.999 8.7664C17.999 8.59111 18.0867 8.32819 18.1743 8.24055C18.3496 8.06527 18.5249 7.97763 18.7002 7.97763L76.1046 8.15291C76.2799 8.15291 76.5428 8.24055 76.6304 8.41583C76.8057 8.59111 76.8057 8.7664 76.8057 8.94168C76.0169 33.0428 75.6664 57.4944 75.8417 81.6832V81.7708C75.754 82.6472 75.754 82.6472 66.3765 82.9101C61.7316 82.9978 55.2462 83.0854 47.1833 83.1731C33.4237 83.2607 19.4013 83.2607 19.226 83.2607ZM19.5766 9.55516C20.19 33.481 20.2777 57.7574 20.1024 81.7708C40.4349 81.6832 70.145 81.5079 74.5271 81.0697C74.4394 57.4068 74.7023 33.3933 75.4911 9.6428L19.5766 9.55516Z" fill="#081831"/>
<path d="M1.26045 42.5956C2.48741 56.1798 2.48743 69.8517 1.17283 83.3483C0.822268 87.1169 0.471702 91.236 1.52339 94.8292C2.22451 97.4584 4.5908 99.2112 7.30765 99.2112H17.7369C21.8559 99.2112 25.975 99.2112 30.0941 99.1236C47.9728 99.036 65.939 99.036 83.8177 98.9483C85.4828 98.9483 87.148 98.9483 88.7255 98.3348C90.3031 97.7213 91.6177 96.4067 91.6177 94.9169C92.2311 77.7393 92.6693 60.4742 92.5817 43.6473C80.6626 55.1281 68.4806 66.2585 56.0357 77.1259C54.1076 78.8787 51.4784 80.6315 48.9368 79.9304C41.6627 77.2135 35.7031 71.9551 29.8312 66.7843C20.2784 58.2832 10.7256 49.7821 1.26045 42.5956Z" fill="white"/>
<path d="M7.21987 100C4.24009 100 1.52325 97.9843 0.734486 95.0921C-0.317198 91.4989 -0.0542984 87.4674 0.383903 83.3483C1.69851 69.8517 1.69851 56.1798 0.471549 42.6832C0.471549 42.4203 0.559184 42.0697 0.822105 41.9821C1.08503 41.8068 1.43561 41.8944 1.61089 42.0697C11.1637 49.3439 20.8041 57.9326 30.1816 66.2585C35.6153 71.0787 41.7502 76.6 49.0243 79.3169C51.2153 80.018 53.6693 78.1775 55.3344 76.6877C67.6917 65.9079 80.049 54.6023 91.8805 43.2091C92.0557 43.0338 92.4063 42.9461 92.6692 43.0338C92.9321 43.1214 93.1074 43.3843 93.1074 43.7349C93.1951 58.3708 92.9321 74.5843 92.1434 95.0045C92.231 96.9326 90.4782 98.4225 88.813 99.1236C87.1479 99.7371 85.3074 99.8247 83.6422 99.8247L7.21987 100ZM2.13671 44.1731C3.18839 57.2315 3.10077 70.3776 1.8738 83.436C1.52324 87.3798 1.17267 91.236 2.13671 94.6539C2.75019 96.9326 4.85358 98.5101 7.21987 98.5101L83.8175 98.2472C85.3951 98.2472 86.9726 98.2472 88.4625 97.7213C89.6018 97.2831 90.9164 96.2315 90.8288 95.0045C91.5299 75.3731 91.7928 59.5978 91.7928 45.4877C80.3119 56.5304 68.3928 67.3978 56.4737 77.827C54.5456 79.4922 51.6535 81.6832 48.6737 80.7191C41.1367 77.9146 34.8266 72.3057 29.3052 67.3978C20.3659 59.3349 11.1637 51.1843 2.13671 44.1731Z" fill="#081831"/>
<path d="M107.042 69.4135C97.8393 68.8 87.936 68.7124 78.6461 68.8C78.4708 75.4607 78.6461 82.1214 79.4349 88.782C88.3742 88.6068 97.3135 88.5191 106.34 88.6068C106.253 91.9371 106.253 95.2674 106.253 98.6854C113.527 92.4629 120.801 86.1528 128.163 79.4045C121.415 72.5686 114.491 66.0832 107.217 59.7731C107.304 63.0158 107.129 66.2585 107.042 69.4135Z" fill="white"/>
<path d="M106.341 99.4742C106.254 99.4742 106.166 99.4742 105.991 99.3865C105.728 99.2989 105.553 99.036 105.553 98.6854C105.553 95.5303 105.64 92.4629 105.64 89.3955C97.9279 89.3079 89.7773 89.3955 79.4358 89.5708C79.0852 89.5708 78.7346 89.3079 78.647 88.8697C77.9459 82.9101 77.683 76.5124 77.8582 68.8C77.8582 68.3618 78.2088 68.0989 78.5594 68.0989C88.7256 67.9236 98.1032 68.1866 106.254 68.6248C106.254 67.3102 106.341 65.9079 106.341 64.5933C106.429 63.0158 106.429 61.4382 106.429 59.7731C106.429 59.5102 106.604 59.2472 106.867 59.072C107.13 58.9843 107.481 58.9843 107.656 59.1596C115.018 65.5573 122.029 72.218 128.602 78.8787C128.777 79.054 128.865 79.2292 128.777 79.4045C128.777 79.5798 128.69 79.8427 128.514 79.9304C121.153 86.6787 113.703 92.9888 106.604 99.2112C106.692 99.3865 106.517 99.4742 106.341 99.4742ZM100.031 87.9056C102.222 87.9056 104.326 87.9056 106.429 87.9056C106.604 87.9056 106.78 87.9933 106.955 88.1686C107.13 88.3438 107.13 88.5191 107.13 88.6944C107.042 91.4112 107.042 94.3034 107.042 97.1079C113.616 91.4112 120.364 85.627 127.112 79.4922C121.065 73.445 114.667 67.3978 108.007 61.4383C108.007 62.4899 107.919 63.5416 107.919 64.6809C107.831 66.3461 107.831 67.9236 107.831 69.5012C107.831 69.6764 107.744 69.9394 107.568 70.027C107.393 70.2023 107.218 70.2023 107.042 70.2023C98.8919 69.6764 89.602 69.5012 79.4358 69.5888C79.3481 76.6 79.5234 82.5596 80.1369 88.0809C87.6739 87.9056 94.0717 87.9056 100.031 87.9056Z" fill="#081831"/>
<path d="M29.3932 22.0877C28.955 22.0877 28.6045 21.7372 28.6045 21.3866C28.6045 20.9484 28.955 20.5978 29.3056 20.5978L66.1146 20.4226C66.5528 20.4226 66.9033 20.7731 66.9033 21.1237C66.9033 21.5619 66.5528 21.9124 66.2022 21.9124L29.3932 22.0877Z" fill="#081831"/>
<path d="M66.1133 34.0068C66.0257 34.0068 66.0257 34.0068 66.1133 34.0068L28.8662 33.1304C28.4279 33.1304 28.165 32.7799 28.165 32.3416C28.165 31.9034 28.5156 31.6405 28.9538 31.6405L66.2009 32.5169C66.6391 32.5169 66.9021 32.8675 66.9021 33.3057C66.8144 33.7439 66.4639 34.0068 66.1133 34.0068Z" fill="#081831"/>
<path d="M65.4127 45.4877C53.3183 45.4001 41.1363 45.0495 29.0419 44.5237C28.6037 44.5237 28.3408 44.1731 28.3408 43.7349C28.3408 43.2967 28.6914 42.9461 29.1296 43.0338C41.1363 43.5596 53.406 43.9102 65.4127 43.9978C65.8509 43.9978 66.1138 44.3484 66.1138 44.7866C66.2014 45.1371 65.8509 45.4877 65.4127 45.4877Z" fill="#081831"/>
<path d="M65.3253 56.3551L28.7793 55.654C28.3411 55.654 28.0781 55.3034 28.0781 54.8652C28.0781 54.427 28.4287 54.1641 28.8669 54.1641L65.4129 54.8652C65.8511 54.8652 66.114 55.2158 66.114 55.654C66.114 56.0045 65.7635 56.3551 65.3253 56.3551Z" fill="#081831"/>
<path d="M81.277 78.4405H81.1894C81.1017 78.3528 81.0141 78.2652 81.1017 78.0899C82.3287 75.7236 83.731 73.5326 85.3085 71.3416C85.3961 71.254 85.5714 71.1663 85.659 71.254C85.7467 71.3416 85.8343 71.5169 85.7467 71.6045C84.1692 73.7079 82.7669 75.9865 81.5399 78.2652C81.4523 78.3528 81.3647 78.4405 81.277 78.4405Z" fill="#081831"/>
<path d="M81.5385 86.591C81.4508 86.591 81.4508 86.591 81.3632 86.591C81.2756 86.5034 81.1879 86.3281 81.2756 86.2405C84.343 81.3326 87.4104 76.4247 90.3901 71.4292C90.4778 71.3416 90.6531 71.254 90.7407 71.3416C90.8283 71.4292 90.916 71.6045 90.8284 71.6922C87.8486 76.6877 84.7812 81.5955 81.7138 86.5034C81.7138 86.591 81.6261 86.591 81.5385 86.591Z" fill="#081831"/>
<path d="M87.1481 86.3281C87.0604 86.3281 87.0605 86.3281 87.0605 86.3281C86.9728 86.2405 86.8852 86.0652 86.9728 85.9775L95.5616 72.0427C95.6492 71.9551 95.8245 71.8674 95.9121 71.9551C95.9998 72.0427 96.0874 72.218 95.9998 72.3056L87.411 86.2405C87.3234 86.3281 87.2357 86.3281 87.1481 86.3281Z" fill="#081831"/>
<path d="M93.0199 86.2405C92.9323 86.2405 92.9323 86.2405 92.8446 86.2405C92.757 86.1528 92.6694 85.9775 92.757 85.8899L101.872 71.6045C101.959 71.5169 102.135 71.4292 102.222 71.5169C102.31 71.6045 102.397 71.7798 102.31 71.8674L93.1952 86.1528C93.1952 86.2405 93.1076 86.2405 93.0199 86.2405Z" fill="#081831"/>
<path d="M98.4528 86.4157H98.3652C98.2775 86.3281 98.1899 86.1528 98.2775 86.0652C101.17 81.245 104.149 76.4247 107.129 71.6922C107.217 71.6045 107.392 71.5169 107.48 71.6045C107.567 71.6922 107.655 71.8674 107.567 71.9551C104.5 76.6877 101.52 81.5079 98.7157 86.3281C98.5404 86.4157 98.4528 86.4157 98.4528 86.4157Z" fill="#081831"/>
<path d="M103.274 86.5034C103.186 86.5034 103.186 86.5034 103.099 86.5034C103.011 86.4157 102.923 86.2405 103.011 86.1528C106.779 80.5438 110.636 74.7596 114.229 68.9753C114.317 68.8877 114.492 68.8 114.579 68.8877C114.667 68.9753 114.755 69.1506 114.667 69.2382C110.986 74.9348 107.218 80.7191 103.449 86.4157C103.449 86.5034 103.361 86.5034 103.274 86.5034Z" fill="#081831"/>
<path d="M109.496 69.063C109.408 69.063 109.408 69.063 109.408 69.063C109.32 68.9753 109.233 68.8 109.32 68.7124L110.898 66.0832C110.986 65.9955 111.161 65.9079 111.249 65.9955C111.336 66.0832 111.424 66.2585 111.336 66.3461L109.759 68.9753C109.671 68.9753 109.583 69.063 109.496 69.063Z" fill="#081831"/>
<path d="M108.181 87.1169C108.093 87.1169 108.093 87.1169 108.006 87.0292C107.918 86.9416 107.83 86.7663 107.918 86.6787L118.084 73.0068C118.172 72.9191 118.347 72.8315 118.435 72.9191C118.523 73.0068 118.61 73.182 118.523 73.2697L108.356 86.9416C108.356 87.1168 108.269 87.1169 108.181 87.1169Z" fill="#081831"/>
<path d="M110.635 91.8494C110.548 91.8494 110.548 91.8494 110.46 91.7618C110.372 91.6742 110.285 91.4989 110.372 91.4112C113.965 86.3281 117.822 81.245 121.678 76.2495C121.766 76.1618 121.941 76.1618 122.028 76.2495C122.116 76.3371 122.116 76.5124 122.028 76.6C118.172 81.5079 114.316 86.591 110.723 91.6742C110.81 91.8495 110.723 91.8494 110.635 91.8494Z" fill="#081831"/>
<g opacity="0.1294">
<path d="M19.051 52.1484C16.9476 49.1686 13.9678 46.9776 10.9881 44.9619C9.84875 44.1731 8.62178 43.472 7.39481 42.8585C6.16785 42.1574 4.85324 41.3686 3.451 40.9304C1.08471 40.3169 0.120679 43.7349 2.39933 44.5237C4.85326 45.4001 5.46675 45.8383 7.30719 46.5394C7.48247 46.627 7.65774 46.7147 7.92066 46.8023C7.65774 47.3281 7.83302 48.0293 8.44651 48.3798C10.4622 49.4315 11.6016 50.1326 12.8285 51.3596C13.5296 52.0607 14.1431 52.7618 14.8442 53.463C15.1072 53.8135 15.4577 54.0765 15.8959 54.0765C16.1589 54.0765 16.4218 53.9888 16.597 53.9012C16.6847 53.9012 16.6847 53.9888 16.6847 53.9888C16.86 54.1641 17.2982 54.6899 17.3858 54.7776C17.4735 54.9529 17.5611 55.0405 17.7364 55.1281C18.4375 55.7416 19.6645 55.3911 19.9274 54.427C20.1903 53.6383 19.4892 52.8495 19.051 52.1484Z" fill="#081831"/>
</g>
<g opacity="0.1294">
<path d="M90.7411 43.3843C90.2152 43.472 89.9523 43.9102 89.5141 44.1731C90.1276 43.7349 88.7253 44.7866 88.1118 45.2248C85.9208 46.7147 83.9051 48.2922 81.8018 49.8697C80.3995 50.9214 79.3478 51.7102 77.4197 53.2001C76.8063 53.7259 76.1051 54.2517 75.5793 54.7776C75.3164 55.0405 74.9658 55.3034 74.8781 55.654C74.0894 57.2315 76.2804 58.7214 77.5074 57.4944C80.0489 55.1281 82.8534 52.9371 85.4826 50.6585C87.4984 48.9933 88.55 48.4675 90.7411 46.627C91.2669 46.1888 91.968 45.8383 92.3186 45.2248C92.8444 44.2607 91.7927 43.0338 90.7411 43.3843Z" fill="#081831"/>
</g>
<g opacity="0.1294">
<path d="M91.7931 91.4989C91.6179 89.3079 90.128 89.3079 88.3752 89.3079C88.2875 89.3079 88.1999 89.3079 88.2875 89.3079C87.5864 89.2202 86.8853 89.2202 86.1842 89.1326H86.0965C86.1842 89.1326 86.1842 89.1326 86.2718 89.1326C86.1842 89.1326 86.0965 89.1326 86.0089 89.1326C85.9212 89.1326 85.9212 89.1326 85.9212 89.1326C85.8336 89.1326 85.8336 89.1326 85.746 89.1326C84.6943 88.9573 84.7819 88.9573 84.4314 88.9573C84.1684 88.8697 83.9932 88.9573 83.8179 88.9573C83.7302 88.9573 83.6426 88.9573 83.6426 88.9573C83.0291 88.8697 82.328 88.9573 81.8898 89.3955C81.6269 89.3079 81.3639 89.2202 81.0134 89.0449C80.6628 88.9573 80.3123 88.9573 80.0493 89.1326C79.0853 89.6584 79.2606 91.236 80.3123 91.4989C84.1684 92.8135 86.3594 93.7775 89.6021 96.0562C90.4785 96.6697 91.7055 96.0562 91.8808 95.0045C92.0561 93.9528 91.7931 92.7258 91.7931 91.4989Z" fill="#081831"/>
</g>
<g opacity="0.1294">
<path d="M71.6351 60.7371C70.3205 61.8765 68.2171 63.7169 67.4284 64.418C66.6396 65.0315 64.5363 66.5214 62.3453 68.0989C59.8913 70.1146 58.8396 70.991 56.2104 72.9191C54.8082 73.8832 52.8801 75.7236 50.2509 76.0742C48.1475 76.0742 47.9722 75.9865 45.9565 75.5483C44.379 75.0225 44.379 74.9349 42.7138 74.0585C41.1363 73.0944 39.6464 72.0427 38.0689 71.1663C37.4554 70.8158 36.8419 70.2023 36.1408 70.4652C35.0015 70.7281 34.7386 72.3933 35.7902 72.9191C38.2442 74.4967 40.6105 76.2495 43.2397 77.5641C44.7296 78.2652 46.2194 78.7034 47.7969 78.9663C51.8284 80.018 55.5093 77.5641 58.4014 75.0225C61.1183 72.8315 63.6599 70.3776 66.3767 68.1866C68.3924 66.5214 70.3205 64.7686 72.3362 63.0158C72.6868 62.6652 73.2127 62.4023 73.3879 61.9641C73.8261 60.9124 72.4239 59.9484 71.6351 60.7371Z" fill="#081831"/>
</g>
<g opacity="0.1294">
<path d="M58.6652 6.31247C55.5978 6.31247 52.5304 6.13719 49.3753 5.87427C47.0967 5.69898 44.7304 5.87426 42.4517 6.13719C41.8382 6.22483 41.1371 6.31247 40.5236 6.40011C39.9101 6.40011 39.209 6.57539 38.8585 7.18887C38.245 8.24055 39.0338 9.6428 40.1731 9.6428C44.2922 9.02932 48.4989 9.29224 52.618 9.46752C54.809 9.46752 56.9124 9.37988 59.1034 9.37988C59.8921 9.29224 60.6809 9.46752 61.4697 9.2046C61.9955 9.02932 62.4337 8.41583 62.4337 7.88999C62.3461 5.78662 60.0674 6.31247 58.6652 6.31247Z" fill="#081831"/>
</g>
<g opacity="0.1294">
<path d="M92.6696 48.2045C92.6696 47.4158 91.9685 46.627 91.0044 46.8899C90.391 47.0652 90.128 47.5034 90.0404 47.9416C89.5146 48.4675 89.3393 49.4315 89.7775 50.1326C89.6898 51.6225 89.6022 53.1124 89.6022 54.6023C89.4269 57.4944 89.2516 60.4742 89.0763 63.3663C88.9887 64.418 88.9887 65.4697 88.9887 66.4337C88.9887 66.9596 88.9011 67.4854 89.0763 67.9236C89.6022 69.4135 91.8809 68.9753 91.8809 67.3978C91.7056 63.6293 91.9685 59.9484 92.2314 56.2675C92.319 54.427 92.319 52.4989 92.4943 50.6585C93.1078 50.045 93.1955 48.9057 92.6696 48.2045Z" fill="#081831"/>
</g>
</svg>
