<svg width="21" height="20" viewBox="0 0 21 20" fill="none" xmlns="http://www.w3.org/2000/svg">
<path d="M20.1236 10.0599C20.1233 8.13717 19.572 6.25476 18.535 4.63555C17.4981 3.01635 16.0189 1.72816 14.2726 0.923488C12.5263 0.118816 10.586 -0.168642 8.68143 0.0951424C6.77683 0.358927 4.9877 1.16291 3.52583 2.41191C2.06396 3.66091 0.990578 5.30263 0.432747 7.1427C-0.125083 8.98278 -0.143998 10.9442 0.37824 12.7947C0.900479 14.6452 1.942 16.3073 3.37951 17.5842C4.81702 18.8612 6.59031 19.6995 8.48947 20V12.9686H5.93334V10.0599H8.48947V7.84309C8.48947 5.32158 9.98968 3.9287 12.2896 3.9287C13.0435 3.93922 13.7956 4.00479 14.5399 4.12488V6.59792H13.2705C13.0544 6.56927 12.8346 6.58961 12.6273 6.65741C12.4201 6.72522 12.2308 6.83876 12.0734 6.98963C11.916 7.1405 11.7945 7.32484 11.718 7.52901C11.6414 7.73317 11.6118 7.95193 11.6313 8.1691V10.0599H14.4216L13.9756 12.9686H11.6341V20C14.0008 19.6249 16.1559 18.4177 17.7121 16.5957C19.2683 14.7736 20.1233 12.4561 20.1236 10.0599Z" fill="white"/>
</svg>
