<svg width="21" height="20" viewBox="0 0 21 20" fill="none" xmlns="http://www.w3.org/2000/svg">
<path d="M10.0035 4.86907C8.98913 4.86907 7.99755 5.16986 7.15413 5.73341C6.31072 6.29696 5.65336 7.09796 5.26518 8.03511C4.877 8.97225 4.77544 10.0035 4.97333 10.9983C5.17122 11.9932 5.65968 12.9071 6.37695 13.6243C7.09421 14.3416 8.00806 14.83 9.00293 15.0279C9.9978 15.2258 11.029 15.1243 11.9662 14.7361C12.9033 14.3479 13.7043 13.6905 14.2679 12.8471C14.8314 12.0037 15.1322 11.0121 15.1322 9.99778C15.1333 9.32396 15.0014 8.65655 14.744 8.03382C14.4867 7.41109 14.1089 6.84527 13.6325 6.36881C13.156 5.89235 12.5902 5.51461 11.9674 5.25725C11.3447 4.9999 10.6773 4.86798 10.0035 4.86907ZM10.0035 13.3319C9.34407 13.3319 8.69946 13.1363 8.15118 12.77C7.60289 12.4036 7.17556 11.8829 6.92321 11.2737C6.67086 10.6645 6.60484 9.99408 6.73348 9.34733C6.86213 8.70059 7.17967 8.10651 7.64595 7.64023C8.11222 7.17395 8.7063 6.85641 9.35305 6.72777C9.99979 6.59912 10.6702 6.66515 11.2794 6.91749C11.8886 7.16984 12.4093 7.59718 12.7757 8.14546C13.142 8.69375 13.3376 9.33836 13.3376 9.99778C13.3359 10.8815 12.9841 11.7286 12.3592 12.3535C11.7343 12.9784 10.8872 13.3302 10.0035 13.3319ZM16.5383 4.65958C16.5383 4.8961 16.4682 5.12731 16.3368 5.32397C16.2054 5.52064 16.0187 5.67394 15.8002 5.76448C15.5817 5.85502 15.3412 5.87874 15.1092 5.83264C14.8772 5.78655 14.6641 5.6727 14.4969 5.5055C14.3296 5.3383 14.2156 5.12525 14.1694 4.89329C14.1232 4.66134 14.1468 4.42088 14.2372 4.20233C14.3276 3.98378 14.4808 3.79694 14.6774 3.66545C14.874 3.53395 15.1052 3.4637 15.3417 3.46358C15.4989 3.46316 15.6546 3.4938 15.8 3.55375C15.9453 3.6137 16.0774 3.70177 16.1885 3.81291C16.2997 3.92404 16.3879 4.05605 16.4479 4.20135C16.5079 4.34664 16.5387 4.50237 16.5383 4.65958ZM19.934 5.87589C19.9666 4.3213 19.3863 2.8163 18.3184 1.68608C17.1859 0.621801 15.6824 0.0420543 14.1285 0.070465C12.478 -0.0234883 7.52642 -0.0234883 5.87589 0.070465C4.3225 0.0399082 2.81877 0.618161 1.68608 1.68164C0.619993 2.813 0.0399515 4.31723 0.070465 5.87145C-0.0234883 7.52198 -0.0234883 12.4736 0.070465 14.1241C0.0378324 15.6787 0.618173 17.1837 1.68608 18.3139C2.81905 19.3774 4.3222 19.9571 5.87589 19.9295C7.52642 20.0235 12.478 20.0235 14.1285 19.9295C15.6831 19.9622 17.1881 19.3818 18.3184 18.3139C19.3826 17.1814 19.9624 15.678 19.934 14.1241C20.0279 12.4736 20.0279 7.52706 19.934 5.87526V5.87589ZM17.8016 15.894C17.6319 16.3251 17.3752 16.7167 17.0475 17.0444C16.7199 17.372 16.3283 17.6287 15.8972 17.7984C14.5805 18.3209 11.4534 18.2003 10.001 18.2003C8.54848 18.2003 5.41692 18.3165 4.10475 17.7984C3.6736 17.6287 3.28202 17.372 2.95437 17.0444C2.62673 16.7167 2.37004 16.3251 2.20029 15.894C1.67783 14.5774 1.79844 11.4502 1.79844 9.99778C1.79844 8.54531 1.68227 5.41374 2.20029 4.10157C2.37004 3.67043 2.62673 3.27884 2.95437 2.9512C3.28202 2.62355 3.6736 2.36686 4.10475 2.19711C5.42136 1.67465 8.54848 1.79527 10.001 1.79527C11.4534 1.79527 14.585 1.6791 15.8972 2.19711C16.3283 2.36686 16.7199 2.62355 17.0475 2.9512C17.3752 3.27884 17.6319 3.67043 17.8016 4.10157C18.3241 5.41819 18.2035 8.54531 18.2035 9.99778C18.2035 11.4502 18.3234 14.5818 17.8016 15.894Z" fill="white"/>
</svg>
