<svg width="35" height="50" viewBox="0 0 35 50" fill="none" xmlns="http://www.w3.org/2000/svg">
<path d="M17.0909 1.03476e-06C13.3614 -0.00073237 9.73405 1.2187 6.7624 3.47224C3.79075 5.72579 1.63799 8.88971 0.632604 12.4811C-0.372783 16.0726 -0.175576 19.8943 1.19414 23.3632C2.56385 26.832 5.03086 29.7575 8.21869 31.6932L8.72383 44.3236C8.75968 45.0275 9.03541 45.6979 9.50513 46.2233C9.97484 46.7488 10.6103 47.0976 11.3057 47.2118C11.8366 48.8005 14.2252 50 17.0909 50C19.9381 50 22.3127 48.8176 22.8653 47.2449C23.6244 47.2014 24.3404 46.8777 24.8745 46.3365C25.4087 45.7954 25.7229 45.0752 25.7564 44.3156L26.1939 31.5502C29.3314 29.5768 31.7422 26.6367 33.0626 23.1734C34.3829 19.71 34.5413 15.9112 33.5138 12.3499C32.4863 8.78869 30.3286 5.65811 27.3662 3.43042C24.4039 1.20272 20.7974 -0.0012885 17.0909 1.03476e-06ZM22.9706 44.9477C22.9662 44.9602 22.9584 44.9711 22.9482 44.9795C22.9379 44.9878 22.9256 44.9931 22.9125 44.9948H11.5875C11.5726 44.9925 11.5585 44.9863 11.5467 44.9768C11.5349 44.9673 11.5259 44.9548 11.5205 44.9407L11.5184 44.8722L23.0467 42.6507L22.9706 44.9477ZM23.0831 41.538L11.4766 43.774L11.4156 42.1814L23.137 39.9233L23.0831 41.538ZM23.1734 38.8097L11.3727 41.0836L11.3118 39.4894L23.2278 37.1947L23.1734 38.8097ZM25.9592 18.883L20.8121 28.1072L20.5194 35.8825H23.2705L23.2632 36.0818L11.2696 38.3928L11.1739 35.8825H13.6609L13.3696 28.1072L8.22122 18.883C8.15876 18.7688 8.13494 18.6374 8.15337 18.5085C8.1718 18.3796 8.23147 18.2601 8.32344 18.168C8.35911 18.1284 8.39969 18.0935 8.44416 18.0641C8.44937 18.0615 8.45241 18.0561 8.45687 18.0533L8.46386 18.0514C8.5569 17.9885 8.66598 17.9535 8.77825 17.9506H25.2567C25.3149 17.9535 25.3724 17.9652 25.427 17.9853C25.5304 17.9817 25.6329 18.0051 25.7245 18.0533C25.7944 18.0923 25.856 18.1447 25.9057 18.2076C25.9553 18.2704 25.9921 18.3424 26.0139 18.4195C26.0357 18.4965 26.0421 18.5772 26.0327 18.6567C26.0233 18.7362 25.9984 18.8131 25.9592 18.883Z" fill="#CC3D2B"/>
<path d="M19.5989 27.9162C19.6016 27.8197 19.6278 27.7252 19.6753 27.6411L23.0308 21.6283H23.025L23.4089 20.9503L24.4087 19.1591H9.77234L10.7732 20.9536L10.774 20.9548L11.1487 21.6124H11.1413L14.5058 27.6411C14.5525 27.7256 14.5789 27.8198 14.5827 27.9162L14.8823 35.8825H19.2993L19.5989 27.9162Z" fill="#CC3D2B"/>
</svg>
