<svg width="87" height="64" viewBox="0 0 87 64" fill="none" xmlns="http://www.w3.org/2000/svg">
<path d="M42.0491 0.26186C42.0491 0.598112 42.0664 1.60789 42.0796 2.08883C42.1326 3.97388 42.2345 5.81206 42.4567 8.91577C42.688 12.1275 42.7073 12.4128 42.7674 13.3584C42.9091 15.6225 42.9743 17.2436 42.9947 19.0431L43.0018 19.6371L43.0833 19.5719C43.2973 19.3977 43.4236 19.2214 43.4746 19.0217C43.5214 18.8383 43.5255 18.6926 43.496 18.1525C43.4848 17.9446 43.4746 17.6879 43.4746 17.5819C43.4736 17.4179 43.9097 7.83467 43.9443 7.24979C43.9627 6.93494 43.98 6.80655 44.087 6.20028C44.1817 5.66329 44.2001 5.12733 44.1695 3.86281C44.145 2.8561 44.1654 2.38738 44.2612 1.7322C44.3356 1.22782 44.3519 1.10657 44.3662 0.9578C44.3865 0.754011 44.3998 0.520674 44.409 0.231293L44.4151 -7.62939e-06H43.2321H42.0491V0.26186Z" fill="#CC3D2B"/>
<path d="M34.239 0.954756C33.7366 0.995514 33.5033 1.04137 32.7095 1.2584C32.4966 1.3175 32.2744 1.3766 32.2164 1.38985C32.1593 1.40411 32.1104 1.41736 32.1094 1.41838C32.1063 1.42245 38.9373 20.0294 38.9516 20.058C38.9781 20.1089 38.9261 19.7339 38.8558 19.36C38.6113 18.0629 38.1364 16.0667 36.8872 11.0861C35.5371 5.69999 35.3934 5.12327 35.099 3.90053C34.7332 2.37619 34.5263 1.42857 34.4774 1.04646L34.4652 0.947624L34.3725 0.949661C34.3215 0.950682 34.2614 0.952719 34.239 0.954756Z" fill="#CC3D2B"/>
<path d="M51.9849 0.985331C51.9391 1.15651 47.2662 20.3321 47.2703 20.3351C47.2784 20.3433 47.4211 20.2128 47.4853 20.1385C47.6259 19.9724 47.7451 19.7604 47.8562 19.4792C47.8898 19.3916 47.9795 19.1358 48.0549 18.9096C48.1292 18.6834 48.2535 18.3339 48.331 18.1322C49.0656 16.2063 50.7744 11.4744 51.9747 8.04255C53.2026 4.52922 53.9372 2.28347 54.088 1.58753C54.1247 1.41838 54.1247 1.42042 54.0575 1.39087C53.7314 1.24618 52.8714 1.04952 52.2091 0.968008C51.9859 0.940496 51.9972 0.939478 51.9849 0.985331Z" fill="#CC3D2B"/>
<path d="M24.0544 4.49862L23.1221 4.97141L23.1241 5.00911C23.1302 5.10285 23.2474 5.4391 23.3462 5.65003C23.5001 5.97711 23.6733 6.23592 24.1298 6.81672C24.2419 6.95937 24.355 7.10406 24.3805 7.13769C24.407 7.17131 25.4371 8.59682 26.67 10.3066C27.903 12.0154 28.9616 13.4827 29.0238 13.5672C29.1766 13.7771 29.4293 14.1338 30.1375 15.1415C32.8102 18.9473 33.9229 20.4573 34.6392 21.2491C34.7472 21.3673 34.9245 21.5354 34.9327 21.5272C34.9347 21.5252 34.9235 21.4855 34.9072 21.4376C34.7666 21.0208 34.198 19.9265 33.2677 18.2799C32.6991 17.2731 32.2528 16.5028 30.5991 13.6742C30.3973 13.3298 30.1212 12.8499 29.9847 12.6094C29.6128 11.9512 29.4243 11.6292 28.6988 10.4136C28.1903 9.56074 27.8693 9.0044 27.5188 8.36552C27.1958 7.77759 26.9492 7.3537 26.3521 6.36329C25.6195 5.14972 25.378 4.73399 25.0367 4.09919C25.0153 4.05843 24.9949 4.02481 24.9918 4.02583C24.9888 4.02583 24.5669 4.23879 24.0544 4.49862Z" fill="#CC3D2B"/>
<path d="M61.4956 4.18993C61.3438 4.24699 61.1869 4.44568 60.8618 4.98776C60.7946 5.09985 60.5572 5.50743 60.334 5.89462C59.7287 6.94414 59.4597 7.40368 58.8779 8.38085C58.5315 8.96165 58.1983 9.53736 57.6847 10.4391C56.9786 11.6812 56.6964 12.1683 56.2786 12.8693C55.925 13.4613 55.6733 13.8964 54.954 15.1568C54.1327 16.5956 53.9503 16.9084 53.3287 17.9437C52.4137 19.467 52.0031 20.1884 51.6597 20.8782C51.4671 21.2634 51.3337 21.5772 51.297 21.729L51.2888 21.7596L51.3163 21.7341C51.6088 21.4641 54.5973 17.4841 57.429 13.5938C60.5592 9.29383 62.6175 6.33277 63.1962 5.29548C63.2747 5.15385 63.345 5.0061 63.345 4.98063C63.345 4.97248 63.3052 4.9572 63.2309 4.93783C62.7774 4.82269 62.4279 4.66374 61.9653 4.36417C61.7514 4.22661 61.6698 4.18687 61.5883 4.18178C61.5547 4.17974 61.5129 4.1828 61.4956 4.18993Z" fill="#CC3D2B"/>
<path d="M69.7084 9.44663C69.2866 9.60253 68.7771 9.95203 68.1341 10.5267C67.6175 10.9873 67.2721 11.3235 66.5344 12.0796C66.2613 12.3598 63.5744 15.0783 60.5644 18.1209C57.5544 21.1635 55.0937 23.6548 55.0957 23.6568C55.1039 23.665 55.2435 23.6049 55.3749 23.5376C55.8232 23.3074 56.5151 22.8009 57.5371 21.9542C57.6522 21.8584 58.0119 21.5558 58.337 21.2807C58.662 21.0056 59.1715 20.5827 59.468 20.3422C59.7655 20.1017 62.5177 17.8764 65.5847 15.3963C68.6518 12.9172 71.1594 10.8854 71.1584 10.8813C71.1523 10.8681 69.8042 9.41504 69.7971 9.41504C69.793 9.41606 69.7532 9.42931 69.7084 9.44663Z" fill="#CC3D2B"/>
<path d="M16.5693 9.56486C15.8581 10.0529 15.5147 10.4493 15.3333 10.9924C15.2915 11.1167 15.2925 11.1208 15.3455 11.1371C15.5137 11.187 16.015 11.5029 16.5907 11.9196C18.0814 13.0007 20.9049 15.3025 23.5552 17.5972C24.243 18.1923 24.8961 18.7272 26.1943 19.7574C27.2081 20.5613 27.5933 20.8741 28.1404 21.3367C28.9016 21.9817 29.2878 22.3027 29.676 22.6125C30.4932 23.2676 31.0791 23.6732 31.4408 23.8342C31.6293 23.9177 31.6293 23.9157 31.4469 23.7333C31.3573 23.6447 28.7121 21.026 25.5676 17.9161C20.0979 12.5045 18.7753 11.1901 18.5613 10.9537C18.5083 10.8946 18.3779 10.7479 18.2709 10.6276C17.8552 10.1559 17.6402 9.95206 17.3651 9.76763C17.1949 9.65351 16.9504 9.53837 16.7629 9.48335L16.7109 9.46806L16.5693 9.56486Z" fill="#CC3D2B"/>
<path d="M10.478 16.3948C9.99301 16.78 9.57932 17.4423 9.40304 18.1148L9.37451 18.2238L16.6967 21.5303C20.7235 23.3481 24.1472 24.9 24.3041 24.9774C25.4718 25.5582 26.9534 26.2368 27.8276 26.5914C28.3483 26.8023 28.7691 26.944 28.9709 26.9756L29.0116 26.9827L28.9862 26.9613C28.442 26.5089 24.5028 24.1735 18.7814 20.9118C16.9677 19.8776 15.7796 19.2081 15.1438 18.8607C14.1829 18.3359 13.383 17.8754 12.5404 17.3628C12.035 17.0551 11.7762 16.9033 11.5296 16.7688C11.1587 16.566 10.8316 16.4172 10.6064 16.351L10.5534 16.3347L10.478 16.3948Z" fill="#CC3D2B"/>
<path d="M76.0298 16.349C75.5428 16.4305 74.8081 16.7566 73.7484 17.3598C73.3908 17.5636 72.8395 17.8958 72.1528 18.3217C71.2061 18.9076 71.2591 18.878 68.511 20.4248C64.2101 22.8468 62.0927 24.0573 60.2983 25.1221C58.7567 26.0361 57.7642 26.675 57.5115 26.9155C57.4779 26.9471 57.4575 26.9705 57.4657 26.9685C57.4881 26.9613 76.8399 18.228 76.846 18.2229C76.8531 18.2157 76.8063 17.8458 76.7849 17.7378C76.7329 17.4862 76.6565 17.3078 76.524 17.1285C76.3304 16.8666 76.2428 16.6944 76.1633 16.4173C76.146 16.3572 76.1348 16.3337 76.1236 16.3348C76.1144 16.3358 76.0726 16.3419 76.0298 16.349Z" fill="#CC3D2B"/>
<path d="M34.947 21.6546C34.947 21.7413 34.9501 21.7647 34.9603 21.7586C35 21.7351 35.2007 21.5874 35.1977 21.5843C35.1956 21.5813 35.1376 21.5721 35.0703 21.5619L34.947 21.5436V21.6546Z" fill="black"/>
<path d="M42.8183 23.4459C40.0926 23.5621 37.5911 24.4211 35.5736 25.9352C35.1355 26.2643 34.788 26.5639 34.356 26.9868C34.2235 27.1152 33.979 27.3454 33.8108 27.4973C33.2239 28.0281 33.012 28.2757 32.8326 28.6375C32.7542 28.7954 32.7053 28.9268 32.6594 29.1072C32.6258 29.2356 32.583 29.4883 32.583 29.5555V29.5871L32.6829 29.5994C33.1394 29.6585 33.8811 29.9081 34.5822 30.2392C34.6484 30.2708 34.7045 30.2943 34.7065 30.2922C34.7075 30.2902 34.7585 30.2168 34.8196 30.1302C35.8497 28.6548 37.207 27.5024 38.7782 26.7677C40.4574 25.9821 42.3292 25.6489 44.2448 25.7956C47.3791 26.0341 50.1996 27.5309 51.6526 29.7277C51.7626 29.8948 51.9318 30.1751 51.9695 30.2556C51.9868 30.2922 51.9899 30.2943 52.0245 30.2882C52.1651 30.2617 52.6787 30.0762 53.1637 29.8765C53.5906 29.7002 54.3161 29.3793 54.3416 29.3558C54.3589 29.3385 54.1144 28.9146 53.8943 28.5804C53.3603 27.7693 52.6613 26.9949 51.8818 26.3499C50.3504 25.0834 48.4317 24.1837 46.3153 23.7404C45.6113 23.5937 44.9224 23.503 44.1379 23.4561C43.8984 23.4408 43.072 23.4357 42.8183 23.4459Z" fill="#CC3D2B"/>
<path d="M54.8541 23.6936C54.8581 23.7007 54.8989 23.7588 54.9437 23.822L55.0252 23.9371L55.0365 23.8617C55.0436 23.8209 55.0517 23.7629 55.0558 23.7333L55.0629 23.6803H54.9539C54.8673 23.6803 54.848 23.6834 54.8541 23.6936Z" fill="black"/>
<path d="M6.48279 28.2921C6.37173 28.3094 6.2199 28.3471 6.13125 28.3807L6.06502 28.4052L6.05789 28.5519C6.05381 28.6324 6.04566 28.7975 6.03955 28.9177C5.95905 30.5327 5.39863 32.3699 4.5631 33.7669C4.08929 34.5576 3.56861 35.1485 3.09683 35.4277C2.75651 35.6305 2.47426 35.7161 1.82111 35.816C1.36361 35.8863 1.17918 35.928 0.96316 36.0157C0.72167 36.1125 0.522975 36.2459 0.346698 36.4304C0.205064 36.5781 0.110302 36.7361 0.0532412 36.9164C-0.0873734 37.3668 0.0552791 37.8885 0.425157 38.2757C0.664609 38.5253 0.947876 38.6843 1.26986 38.7505C1.47365 38.7923 1.48996 38.7913 2.0249 38.7047C4.79745 38.2594 8.19054 37.7835 10.6605 37.4931C13.3128 37.1803 15.1805 37.0193 16.9983 36.9449C17.4416 36.9266 21.8821 36.9266 22.6076 36.9449C24.0158 36.9796 24.9349 37.0254 25.9549 37.111C29.6974 37.4238 32.4567 38.2125 34.4885 39.5504C35.0968 39.9508 35.5676 40.3869 36.072 41.0177C36.3084 41.3121 36.5132 41.5975 36.9442 42.2353C37.2733 42.7203 37.4302 42.9455 37.6116 43.188C38.2036 43.9797 38.7834 44.5259 39.4691 44.9355C39.5384 44.9763 39.5985 45.0181 39.6036 45.0272C39.621 45.0588 39.7677 45.5021 39.8329 45.715C40.1386 46.7248 40.3485 47.8701 40.4483 49.0775C40.6185 51.1124 40.6796 53.083 40.6542 55.6497C40.6256 58.4101 40.5543 59.7826 40.377 60.9177C40.2435 61.7777 40.002 62.7925 39.7015 63.7626C39.6648 63.8818 39.6342 63.9837 39.6342 63.9898C39.6342 63.9969 39.8278 63.999 40.2782 63.998L40.9211 63.9949L40.966 63.8624C41.451 62.4217 41.7516 60.4011 41.8555 57.8914C41.8932 56.9815 41.9044 55.6029 41.8871 54.05C41.8626 51.8491 41.8178 50.4765 41.7271 49.2151C41.6354 47.919 41.4347 46.6779 41.1677 45.7517C41.1484 45.6824 41.1331 45.6233 41.1361 45.6213C41.1382 45.6192 41.185 45.6284 41.2401 45.6427C41.3848 45.6783 41.561 45.716 41.7526 45.7507C41.8453 45.767 41.9238 45.7843 41.9278 45.7884C41.9319 45.7935 41.9584 45.8974 41.9869 46.0207C42.2203 47.0356 42.364 48.0912 42.4261 49.2253C42.4363 49.4148 42.4699 50.3706 42.5382 52.3636C42.5545 52.8599 42.5728 53.3958 42.579 53.5558C42.584 53.7158 42.5891 54.2558 42.5891 54.7551C42.5891 55.4908 42.5861 55.6925 42.5739 55.8097C42.5657 55.8902 42.5494 56.2468 42.5382 56.6025C42.4659 58.8961 42.3874 60.5397 42.3181 61.2285C42.2733 61.6819 42.046 62.8547 41.8341 63.7239C41.8015 63.8604 41.774 63.9786 41.774 63.9857C41.774 63.998 42.2213 64 44.6118 64C46.1728 64 47.4495 63.9969 47.4495 63.9939C47.4495 63.9908 47.42 63.8482 47.3843 63.676C47.1724 62.6682 47.0002 61.6065 46.8993 60.6833C46.8881 60.5763 46.8718 60.4622 46.8636 60.4286C46.7974 60.1525 46.7393 58.9674 46.6914 56.8776C46.671 56.0135 46.6649 50.0506 46.6833 49.7704C46.7526 48.7545 46.8545 47.9608 47.0582 46.8409C47.2019 46.0523 47.3354 45.5092 47.5208 44.961C47.5484 44.8774 47.5718 44.8051 47.5718 44.802C47.5718 44.798 47.5575 44.7929 47.5392 44.7908C47.5076 44.7878 47.5096 44.7857 47.6034 44.7154C48.1404 44.3119 48.7089 43.7403 49.2643 43.0454C49.4986 42.7519 49.682 42.5084 50.1293 41.894C50.8773 40.8679 51.1187 40.5653 51.4693 40.2117C51.7016 39.9783 51.8524 39.853 52.1265 39.6655C53.9035 38.452 56.6506 37.6144 60.2373 37.1915C61.5955 37.0316 62.91 36.9419 64.7206 36.8838C65.2627 36.8665 67.6878 36.8665 68.287 36.8838C71.3897 36.9735 74.1683 37.1752 77.2486 37.5339C78.4061 37.6684 78.4978 37.6816 82.004 38.2421C83.887 38.5427 85.4114 38.7811 85.4481 38.7811C85.5601 38.7811 85.7344 38.7607 85.8026 38.7403C85.8903 38.7149 85.9657 38.668 86.1134 38.5488C86.36 38.3491 86.5322 38.1483 86.6474 37.9252C86.8216 37.5879 86.8552 37.2567 86.7472 36.9419C86.6861 36.7656 86.5944 36.625 86.4303 36.462C86.201 36.2337 85.8964 36.0625 85.4868 35.9301C85.2718 35.8608 85.1607 35.8353 84.6563 35.7395C84.1061 35.6346 83.7749 35.5215 83.5151 35.3493C83.3979 35.2718 83.2217 35.1007 83.0994 34.9478C82.9588 34.7705 82.4391 34.0532 82.3128 33.8596C81.6321 32.8243 81.1838 31.6841 80.979 30.4746C80.9158 30.1027 80.8801 29.7685 80.8353 29.1266C80.7966 28.5723 80.7446 28.4255 80.5581 28.3399C80.4573 28.2931 80.3747 28.2819 80.1424 28.2829C79.8979 28.2839 79.7226 28.2992 78.94 28.3878C76.6301 28.6507 75.6346 28.7231 71.6393 28.9177C68.1341 29.0889 66.6862 29.1836 64.9621 29.3558C63.1902 29.5331 61.8819 29.7298 60.1099 30.0844C56.3245 30.8404 52.7001 31.8553 50.2424 32.8447C48.7364 33.452 47.636 34.0481 46.9044 34.6554C46.7699 34.7664 46.452 35.0864 46.3725 35.1903L46.3093 35.2729L46.7801 35.7426C47.0389 36.0014 47.2539 36.2133 47.258 36.2133C47.262 36.2133 47.3507 36.1573 47.4566 36.088C50.2567 34.2529 54.036 32.8131 58.5815 31.8482C61.3 31.2715 63.9626 30.8934 67.5278 30.5765L68.0169 30.5327L68.9798 30.5358C69.9927 30.5388 70.0976 30.5358 70.5286 30.492C71.2042 30.4227 71.8115 30.3921 73.0607 30.3646C74.9804 30.3218 75.3075 30.2994 76.8359 30.0986C77.9914 29.9478 78.3817 29.901 78.8025 29.8663C79.1173 29.8398 79.4465 29.8225 79.4546 29.8317C79.4617 29.8398 79.7307 31.6688 79.7297 31.7014C79.7297 31.7178 79.7165 31.7198 79.6003 31.7198C79.0766 31.7188 76.7004 31.6964 75.3992 31.679C72.5991 31.6423 72.0856 31.6383 70.5694 31.6383C68.7689 31.6383 67.8223 31.6515 66.5344 31.6943C62.2721 31.837 58.772 32.2731 55.6571 33.0505C54.6137 33.3114 52.8958 33.9095 51.561 34.4781C49.4945 35.3584 48.2524 36.1818 47.9997 36.8369C47.9824 36.8818 47.9702 36.9256 47.9733 36.9337C47.9763 36.9419 48.0904 37.0978 48.226 37.2802L48.4736 37.6113L48.5296 37.6052C48.7426 37.5808 49.0533 37.4381 49.8389 37.0081C51.3062 36.2032 52.0633 35.8312 53.125 35.3931C56.4764 34.0094 60.3687 33.2655 64.8327 33.1565C65.4787 33.1402 74.4231 33.1484 74.6503 33.1647C75.1058 33.1983 75.3116 33.2227 75.6213 33.2798C75.7406 33.3022 75.8893 33.3267 75.9525 33.3348C76.3366 33.3858 76.9286 33.3542 78.2217 33.2125C78.4489 33.1881 78.6873 33.1616 78.7515 33.1555C78.8911 33.1422 80.0588 33.131 80.2677 33.1412C80.3941 33.1473 80.4124 33.1504 80.4124 33.1657C80.4124 33.1993 80.5031 33.5019 80.5551 33.6425C80.6162 33.8076 80.7874 34.1602 80.8913 34.3334C80.9321 34.4006 81.0503 34.584 81.1552 34.741C81.2592 34.8979 81.3468 35.0303 81.3488 35.0344C81.3549 35.0497 80.607 35.0222 80.2494 34.9947C79.7684 34.958 79.3548 34.9091 78.4163 34.7756C77.4198 34.635 77.2944 34.6217 76.1227 34.527C74.1622 34.369 73.347 34.2906 72.4086 34.1704C71.6118 34.0685 71.1624 34.0409 69.6269 33.9971C68.4887 33.9645 68.2075 33.9492 67.4463 33.8759C66.5038 33.7842 64.8215 33.8412 62.805 34.0328C59.7482 34.3242 56.4366 34.8653 54.7319 35.3533C54.5108 35.4165 54.1379 35.5388 53.8281 35.6478C52.2579 36.2052 51.1962 36.7524 50.3647 37.434C50.1558 37.6052 49.9775 37.7672 49.5995 38.129C49.033 38.671 48.7823 38.8871 48.4083 39.1561C48.2473 39.2712 48.2066 39.2977 48.1995 39.2895C48.1974 39.2875 48.1159 39.1387 48.0201 38.9594C47.9233 38.7801 47.7919 38.5396 47.7267 38.4245C47.0083 37.1487 46.5029 36.57 45.7978 36.2195C45.1365 35.8893 44.2969 35.7599 42.7827 35.7518C42.3232 35.7497 42.2621 35.7538 42.0338 35.8007C40.8192 36.0523 39.4865 37.2038 38.9484 38.4662C38.8425 38.7159 38.7375 39.1071 38.7375 39.2569C38.7375 39.2743 38.7335 39.2916 38.7294 39.2946C38.7243 39.2977 38.6591 39.2794 38.5837 39.2539C38.225 39.1336 37.9947 38.9767 37.6625 38.6231C37.2784 38.2146 37.1612 38.0933 37.0104 37.9547C36.1178 37.1304 34.9878 36.463 33.4696 35.8618C30.7897 34.8011 27.1205 34.096 24.2685 34.0939C23.4615 34.0929 23.0987 34.0705 22.0981 33.9564C21.2555 33.8606 21.0109 33.8412 20.5392 33.8321C20.0827 33.8239 19.8075 33.8392 19.1941 33.9044C18.5094 33.9778 17.7075 34.0318 15.3884 34.1602C12.84 34.3018 11.925 34.3578 10.7827 34.4455C8.21806 34.6431 6.5531 34.8928 5.76036 35.1985C5.69616 35.2239 5.62993 35.2515 5.61159 35.2606L5.57899 35.2769L5.58612 35.2178C5.6065 35.0405 5.67273 34.7919 5.75424 34.5891C5.86225 34.3161 5.96619 34.1184 6.27696 33.5845C6.38293 33.4021 6.48177 33.2288 6.49706 33.1983L6.52355 33.1433L6.83433 33.1494C7.28164 33.1585 7.59344 33.184 8.33218 33.2737C9.15549 33.3735 9.24515 33.3807 9.667 33.3878C9.90135 33.3909 10.1214 33.3878 10.3701 33.3766C14.2961 33.2003 16.1067 33.1382 18.0488 33.1147C20.7735 33.0831 23.1986 33.1881 25.3588 33.4326C29.4254 33.8922 32.9509 34.906 35.9986 36.4936C36.5631 36.788 36.6548 36.84 37.0512 37.0998C37.203 37.1987 37.3609 37.2995 37.4027 37.324C37.6045 37.4412 37.8531 37.5349 38.0854 37.5818C38.2301 37.6113 38.4685 37.6439 38.4879 37.6358C38.495 37.6338 38.5042 37.6144 38.5072 37.594C38.5195 37.5329 38.6051 37.2741 38.6367 37.2027C38.653 37.1661 38.6937 37.0998 38.7263 37.055C38.7976 36.9562 38.8262 36.9001 38.869 36.7819C38.9148 36.6495 38.9637 36.4772 38.9586 36.464C38.9556 36.4569 38.9352 36.4457 38.9128 36.4395C38.8425 36.4181 38.5368 36.2572 38.0345 35.9769C37.1704 35.496 36.8148 35.3055 36.2309 35.012C34.5874 34.1856 33.2301 33.6619 31.2534 33.0903C29.2359 32.5064 27.3773 32.1447 25.6543 32C24.8157 31.9307 23.1772 31.8472 21.6141 31.7962C18.9975 31.7106 16.553 31.6933 9.98083 31.7137C8.34542 31.7188 7.00755 31.7198 7.00755 31.7167C7.00755 31.6831 7.23274 30.5949 7.27247 30.439C7.32342 30.2352 7.40086 29.9937 7.44977 29.8826C7.47626 29.8246 7.47626 29.8246 7.51396 29.8296C7.53536 29.8327 7.6556 29.8439 7.78195 29.8551C8.09375 29.8836 8.60831 29.9407 9.53453 30.0487C11.87 30.3208 12.14 30.3412 14.0434 30.385C15.045 30.4084 15.5708 30.4339 16.122 30.4869C16.2963 30.5042 20.2161 30.7447 20.9365 30.7824C23.0539 30.8944 26.125 31.3693 28.976 32.0265C32.8052 32.9089 35.966 34.0236 37.9937 35.2076C38.5134 35.5113 38.9586 35.817 39.3204 36.1176C39.3784 36.1665 39.4304 36.2072 39.4365 36.2103C39.4437 36.2123 39.4803 36.195 39.518 36.1695C39.5568 36.1451 39.6892 36.0687 39.8125 35.9994C40.0876 35.8455 40.1987 35.7711 40.2914 35.6784C40.376 35.5948 40.4361 35.5103 40.4962 35.389C40.537 35.3055 40.6022 35.1312 40.6165 35.067C40.6226 35.0365 40.6216 35.0365 40.5594 35.0181C40.3566 34.958 39.9083 34.745 39.4304 34.4791C37.9438 33.6537 37.4333 33.3868 36.5468 32.9731C33.6917 31.6403 30.3944 30.6642 26.5866 30.0243C24.3673 29.6513 22.4385 29.4435 17.7829 29.0756C17.3183 29.0389 16.5979 28.9809 16.1832 28.9483C15.1449 28.8637 15.1051 28.8627 14.3643 28.8729C13.4188 28.8861 12.5241 28.8851 12.3366 28.8688C12.1033 28.8484 11.9087 28.8229 11.5724 28.7659C10.9662 28.663 10.8164 28.6507 9.7638 28.6171C8.86407 28.5886 8.57571 28.5611 7.97045 28.448C7.09314 28.2849 7.02895 28.2758 6.75994 28.2768C6.65805 28.2778 6.53374 28.2839 6.48279 28.2921Z" fill="white"/>
<path d="M25.583 44.7164C25.583 44.7185 25.6125 44.7654 25.6482 44.8204C25.9794 45.3278 26.2616 46.037 26.4644 46.8664C26.5938 47.3983 26.6987 48.1187 26.7487 48.8126C26.7843 49.3007 26.7864 49.5972 26.7833 53.3041L26.7803 56.9703L22.8308 52.759C20.6584 50.4429 18.7968 48.4601 18.6939 48.3541C17.6138 47.2343 16.9179 46.4069 16.5052 45.7507C16.3931 45.5734 16.2423 45.2728 16.1985 45.1413C16.1659 45.0395 16.1374 44.8978 16.1374 44.8326V44.7929H12.6373C10.7125 44.7929 9.13721 44.7949 9.13721 44.7969C9.13721 44.8 9.17083 44.8255 9.21159 44.855C9.51014 45.071 10.0553 45.5306 10.6656 46.0808C11.5623 46.8909 12.8421 48.1106 13.7938 49.0623C14.451 49.7195 14.7873 50.0771 15.1337 50.4878C15.2071 50.5744 16.9148 52.3738 18.9293 54.4871C22.7789 58.5262 22.8308 58.5802 23.0163 58.783C24.399 60.291 26.0191 62.3147 26.9565 63.7065L27.1532 64H28.109C28.6347 64 29.0668 63.998 29.0698 63.9949C29.0729 63.9918 29.0668 63.9358 29.0566 63.8696C28.8263 62.3941 28.6908 60.7954 28.6398 58.946C28.6266 58.4712 28.6266 52.1221 28.6398 51.4822C28.6775 49.6339 28.7662 48.3276 28.9149 47.4421C29.0729 46.4996 29.3653 45.5612 29.724 44.8448L29.7912 44.7114H27.6871C26.5296 44.7114 25.583 44.7134 25.583 44.7164Z" fill="white"/>
<path d="M5.948 44.7969C5.948 44.799 6.0825 44.9019 6.24655 45.0252C7.61397 46.0513 8.75723 47.0305 9.64371 47.9343C10.0859 48.3857 10.3325 48.6781 10.5557 49.0164C10.8909 49.5238 11.0662 50.0109 11.1487 50.662C11.2017 51.0798 11.1996 50.9259 11.2027 53.7851C11.2068 56.0981 11.2047 56.4792 11.1915 56.7094C11.1823 56.8552 11.1456 57.8364 11.109 58.89L11.0417 60.8056L10.95 61.4068C10.8512 62.0508 10.8461 62.0722 10.7279 62.4217C10.5587 62.922 10.3468 63.3815 10.0717 63.8472C10.0268 63.9226 9.98812 63.9878 9.98608 63.9918C9.98404 63.9969 10.9357 64 12.1014 64C13.2681 64 14.2218 63.9959 14.2218 63.9918C14.2218 63.9878 14.1913 63.9338 14.1546 63.8716C14.0792 63.7463 13.9263 63.4396 13.8703 63.302C13.7236 62.9464 13.6176 62.5745 13.4841 61.957C13.2589 60.9116 13.1214 59.7714 13.0816 58.6098C13.0755 58.4366 13.0745 56.9825 13.0786 54.8081L13.0857 51.2856L16.9903 55.3889C19.1383 57.6459 20.9448 59.5452 21.0039 59.6094C21.1089 59.7204 21.6306 60.3359 22.298 61.1317C23.5584 62.6356 24.4001 63.6841 24.556 63.945L24.5896 64H25.4119C25.8653 64 26.2352 63.9959 26.2352 63.9918C26.2352 63.9868 26.1995 63.9399 26.1557 63.8869C26.1119 63.8339 25.9346 63.6097 25.7614 63.3886C25.2397 62.7212 24.8321 62.2067 24.2574 61.4883C23.806 60.9258 23.6349 60.721 23.2854 60.3267C22.3826 59.3108 21.6917 58.5374 20.9459 57.7131C20.7461 57.492 19.5499 56.2234 18.2874 54.8957C17.025 53.567 15.8287 52.3045 15.629 52.0885C14.6029 50.9799 13.9335 50.2829 12.8361 49.1815C12.1024 48.4438 11.3749 47.7295 11.058 47.436C9.90151 46.3631 8.89683 45.5102 8.09288 44.9202L7.91966 44.7929H6.93434C6.39124 44.7929 5.948 44.7949 5.948 44.7969Z" fill="white"/>
<path d="M64.6187 44.8041C64.6187 44.8102 64.6523 44.907 64.6941 45.0201C65.0497 45.9901 65.3095 47.0967 65.4583 48.2828C65.5938 49.3527 65.7028 51.2255 65.7405 53.1024C65.7538 53.7688 65.7466 56.2733 65.7303 56.9897C65.6906 58.6291 65.6315 59.6929 65.5347 60.4592C65.4094 61.4649 65.1505 62.6122 64.7847 63.7911C64.7542 63.892 64.7256 63.9806 64.7236 63.9868C64.7195 63.9969 64.852 64 65.3666 64H66.0136L66.0849 63.7809C66.4956 62.5225 66.7737 60.8239 66.9011 58.8034C66.9765 57.598 66.9979 56.4771 66.9826 54.5279C66.9643 52.1986 66.9225 50.7629 66.8338 49.4138C66.7197 47.6612 66.4477 46.1705 66.0442 45.0904C65.9983 44.9691 65.9525 44.852 65.9423 44.8316L65.9229 44.7929H65.2708C64.8092 44.7929 64.6187 44.7959 64.6187 44.8041Z" fill="white"/>
<path d="M66.7483 44.7969C66.7483 44.8 66.7778 44.9009 66.8145 45.0231C67.2292 46.3997 67.4677 47.9027 67.5329 49.5463C67.5441 49.8316 67.645 52.758 67.6704 53.5303C67.6918 54.1825 67.6918 55.5886 67.6704 55.7669C67.6613 55.8382 67.646 56.1653 67.6348 56.5057C67.5482 59.1254 67.4758 60.6354 67.4055 61.2855C67.376 61.5525 67.2384 62.3198 67.1202 62.8761C67.0428 63.2348 66.8889 63.9032 66.8645 63.9817C66.8594 63.999 66.999 64 69.6961 64C71.2561 64 72.5349 63.998 72.5379 63.9949C72.541 63.9918 72.5328 63.9399 72.5196 63.8798C72.2995 62.8771 72.0641 61.4435 71.9857 60.6222C71.9785 60.5549 71.9673 60.4734 71.9592 60.4418C71.9031 60.2167 71.8552 59.4188 71.8125 57.9678C71.8063 57.7691 71.7972 57.4594 71.7911 57.2801C71.7849 57.0946 71.7768 55.6783 71.7717 53.9889C71.7666 52.3575 71.7595 50.9045 71.7564 50.7588C71.7391 50.1321 71.8033 49.1754 71.9256 48.2522C72.0325 47.436 72.22 46.3997 72.3668 45.8067C72.4401 45.5122 72.6042 44.961 72.6633 44.8102C72.6704 44.7939 72.5257 44.7929 69.7093 44.7929C68.0811 44.7929 66.7483 44.7949 66.7483 44.7969Z" fill="white"/>
</svg>
