<svg width="109" height="80" viewBox="0 0 109 80" fill="none" xmlns="http://www.w3.org/2000/svg">
<path d="M52.5613 0.327314C52.5613 0.747629 52.5829 2.00985 52.5995 2.61103C52.6657 4.96734 52.7931 7.26506 53.0708 11.1447C53.3599 15.1593 53.3841 15.516 53.4592 16.698C53.6363 19.5281 53.7178 21.5545 53.7433 23.8038L53.7522 24.5464L53.8541 24.4649C54.1215 24.2471 54.2795 24.0267 54.3432 23.7771C54.4018 23.5478 54.4068 23.3657 54.3699 22.6906C54.3559 22.4308 54.3432 22.1098 54.3432 21.9774C54.3419 21.7723 54.887 9.79332 54.9303 9.06223C54.9533 8.66866 54.9749 8.50818 55.1086 7.75034C55.2271 7.07911 55.25 6.40915 55.2118 4.82851C55.1812 3.57011 55.2067 2.98422 55.3264 2.16524C55.4194 1.53477 55.4398 1.3832 55.4576 1.19724C55.4831 0.942503 55.4997 0.650829 55.5111 0.289104L55.5188 -2.09808e-05H54.04H52.5613V0.327314Z" fill="#CC3D2B"/>
<path d="M42.7987 1.19353C42.1708 1.24448 41.8791 1.3018 40.8869 1.57309C40.6207 1.64697 40.3431 1.72084 40.2705 1.7374C40.1991 1.75523 40.138 1.77179 40.1367 1.77306C40.1329 1.77815 48.6717 25.0369 48.6895 25.0725C48.7226 25.1362 48.6577 24.6675 48.5698 24.2001C48.2641 22.5787 47.6706 20.0835 46.109 13.8578C44.4214 7.12508 44.2418 6.40417 43.8737 4.87575C43.4165 2.97032 43.1579 1.7858 43.0968 1.30817L43.0815 1.18462L42.9656 1.18717C42.9019 1.18844 42.8267 1.19099 42.7987 1.19353Z" fill="#CC3D2B"/>
<path d="M64.981 1.23175C64.9237 1.44572 59.0826 25.4152 59.0876 25.419C59.0978 25.4292 59.2762 25.2661 59.3564 25.1732C59.5322 24.9655 59.6812 24.7006 59.82 24.3491C59.862 24.2395 59.9741 23.9199 60.0684 23.6371C60.1614 23.3543 60.3168 22.9175 60.4136 22.6653C61.3319 20.258 63.4678 14.343 64.9682 10.0533C66.503 5.66161 67.4214 2.85442 67.6099 1.98449C67.6557 1.77306 67.6557 1.77561 67.5716 1.73867C67.1641 1.55781 66.0891 1.31199 65.2612 1.21009C64.9823 1.1757 64.9963 1.17443 64.981 1.23175Z" fill="#CC3D2B"/>
<path d="M30.0683 5.62329L28.9028 6.21427L28.9054 6.2614C28.913 6.37858 29.0595 6.79889 29.183 7.06255C29.3754 7.4714 29.5919 7.79491 30.1625 8.52091C30.3026 8.69923 30.444 8.88009 30.4758 8.92212C30.5089 8.96416 31.7966 10.746 33.3378 12.8833C34.879 15.0192 36.2023 16.8533 36.28 16.9591C36.4711 17.2214 36.7869 17.6672 37.6721 18.9269C41.013 23.6841 42.4039 25.5717 43.2993 26.5614C43.4343 26.7091 43.6559 26.9193 43.6661 26.9091C43.6686 26.9065 43.6546 26.8568 43.6342 26.797C43.4585 26.276 42.7478 24.9081 41.5849 22.8498C40.8742 21.5914 40.3163 20.6285 38.2491 17.0928C37.9969 16.6623 37.6518 16.0624 37.4811 15.7618C37.0162 14.939 36.7806 14.5365 35.8737 13.017C35.2381 11.9509 34.8369 11.2555 34.3988 10.4569C33.995 9.722 33.6868 9.19214 32.9404 7.95412C32.0246 6.43717 31.7228 5.91751 31.2961 5.124C31.2693 5.07306 31.2439 5.03102 31.24 5.0323C31.2362 5.0323 30.7089 5.2985 30.0683 5.62329Z" fill="#CC3D2B"/>
<path d="M76.8696 5.23736C76.6798 5.30868 76.4836 5.55705 76.0773 6.23465C75.9933 6.37475 75.6965 6.88423 75.4176 7.36823C74.661 8.68012 74.3247 9.25455 73.5975 10.476C73.1644 11.202 72.7479 11.9216 72.106 13.0489C71.2233 14.6015 70.8705 15.2103 70.3483 16.0866C69.9063 16.8266 69.5917 17.3705 68.6925 18.946C67.6659 20.7444 67.4379 21.1355 66.661 22.4295C65.5172 24.3337 65.0039 25.2354 64.5747 26.0977C64.334 26.5792 64.1671 26.9715 64.1213 27.1613L64.1111 27.1995L64.1455 27.1676C64.511 26.8301 68.2467 21.8551 71.7863 16.9922C75.699 11.6172 78.2719 7.91591 78.9953 6.6193C79.0934 6.44226 79.1813 6.25758 79.1813 6.22573C79.1813 6.21554 79.1316 6.19644 79.0386 6.17224C78.4719 6.02831 78.035 5.82962 77.4567 5.45516C77.1893 5.28321 77.0874 5.23354 76.9855 5.22717C76.9434 5.22462 76.8912 5.22844 76.8696 5.23736Z" fill="#CC3D2B"/>
<path d="M87.1355 11.8083C86.6082 12.0032 85.9714 12.4401 85.1677 13.1584C84.5219 13.7341 84.0901 14.1544 83.168 15.0995C82.8266 15.4498 79.4679 18.848 75.7055 22.6512C71.943 26.4544 68.8671 29.5685 68.8696 29.5711C68.8798 29.5813 69.0543 29.5061 69.2186 29.4221C69.779 29.1342 70.6439 28.5012 71.9214 27.4428C72.0653 27.323 72.5149 26.9448 72.9212 26.6009C73.3275 26.257 73.9644 25.7284 74.335 25.4278C74.7069 25.1272 78.1471 22.3455 81.9809 19.2453C85.8147 16.1465 88.9492 13.6068 88.948 13.6017C88.9403 13.5851 87.2552 11.7688 87.2463 11.7688C87.2412 11.7701 87.1916 11.7867 87.1355 11.8083Z" fill="#CC3D2B"/>
<path d="M20.7116 11.9561C19.8226 12.5662 19.3933 13.0616 19.1666 13.7405C19.1144 13.8959 19.1157 13.901 19.1819 13.9214C19.3921 13.9838 20.0187 14.3786 20.7384 14.8996C22.6018 16.2509 26.1311 19.1282 29.444 21.9965C30.3037 22.7404 31.1201 23.409 32.7428 24.6967C34.0101 25.7017 34.4916 26.0927 35.1756 26.6709C36.127 27.4772 36.6097 27.8784 37.095 28.2656C38.1165 29.0846 38.8489 29.5915 39.301 29.7927C39.5366 29.8972 39.5366 29.8946 39.3087 29.6666C39.1966 29.5558 35.8901 26.2825 31.9595 22.3952C25.1224 15.6307 23.4691 13.9876 23.2017 13.6921C23.1354 13.6182 22.9724 13.4348 22.8387 13.2845C22.319 12.6948 22.0503 12.4401 21.7064 12.2096C21.4937 12.0669 21.188 11.923 20.9536 11.8542L20.8887 11.8351L20.7116 11.9561Z" fill="#CC3D2B"/>
<path d="M13.0977 20.4934C12.4914 20.9749 11.9743 21.8028 11.7539 22.6434L11.7183 22.7797L20.8709 26.9128C25.9045 29.185 30.1841 31.1249 30.3803 31.2217C31.8399 31.9477 33.6918 32.7959 34.7847 33.2392C35.4355 33.5028 35.9615 33.6799 36.2137 33.7194L36.2647 33.7283L36.2328 33.7015C35.5527 33.136 30.6286 30.2167 23.4769 26.1397C21.2097 24.8469 19.7246 24.0101 18.9299 23.5757C17.7288 22.9198 16.7289 22.3441 15.6756 21.7034C15.0438 21.3188 14.7203 21.129 14.4121 20.9609C13.9485 20.7074 13.5396 20.5215 13.2581 20.4387L13.1919 20.4183L13.0977 20.4934Z" fill="#CC3D2B"/>
<path d="M95.0373 20.4362C94.4285 20.5381 93.5102 20.9457 92.1855 21.6997C91.7385 21.9544 91.0494 22.3697 90.1909 22.9021C89.0077 23.6344 89.0739 23.5975 85.6388 25.5309C80.2626 28.5585 77.6159 30.0716 75.3729 31.4026C73.4458 32.5451 72.2053 33.3437 71.8894 33.6443C71.8474 33.6838 71.8219 33.7131 71.8321 33.7105C71.8601 33.7016 96.0499 22.7849 96.0575 22.7785C96.0664 22.7696 96.0078 22.3073 95.9811 22.1722C95.9161 21.8576 95.8206 21.6348 95.655 21.4106C95.413 21.0833 95.3035 20.868 95.2041 20.5216C95.1825 20.4464 95.1685 20.4171 95.1545 20.4184C95.143 20.4197 95.0908 20.4273 95.0373 20.4362Z" fill="#CC3D2B"/>
<path d="M43.6838 27.0684C43.6838 27.1767 43.6877 27.206 43.7004 27.1983C43.7501 27.169 44.001 26.9843 43.9972 26.9805C43.9946 26.9767 43.922 26.9652 43.838 26.9525L43.6838 26.9296V27.0684Z" fill="black"/>
<path d="M53.5231 29.3075C50.116 29.4527 46.9892 30.5264 44.4673 32.4191C43.9196 32.8305 43.4853 33.2049 42.9452 33.7335C42.7796 33.894 42.4739 34.1818 42.2638 34.3716C41.5302 35.0352 41.2652 35.3447 41.0411 35.7969C40.943 35.9943 40.8818 36.1586 40.8245 36.384C40.7825 36.5445 40.729 36.8604 40.729 36.9445V36.9839L40.8538 36.9992C41.4244 37.0731 42.3517 37.3851 43.228 37.7991C43.3108 37.8386 43.3808 37.8679 43.3834 37.8653C43.3846 37.8628 43.4483 37.7711 43.5247 37.6628C44.8124 35.8185 46.509 34.378 48.473 33.4597C50.572 32.4776 52.9118 32.0612 55.3063 32.2446C59.2241 32.5426 62.7497 34.4136 64.566 37.1597C64.7035 37.3686 64.915 37.7189 64.9621 37.8195C64.9837 37.8653 64.9876 37.8679 65.0309 37.8602C65.2066 37.8271 65.8486 37.5953 66.4548 37.3457C66.9885 37.1253 67.8954 36.7241 67.9272 36.6948C67.9489 36.6732 67.6432 36.1433 67.3681 35.7255C66.7007 34.7117 65.8269 33.7437 64.8526 32.9374C62.9382 31.3543 60.5399 30.2296 57.8944 29.6755C57.0143 29.4921 56.1533 29.3788 55.1726 29.3202C54.8732 29.3011 53.8403 29.2947 53.5231 29.3075Z" fill="#CC3D2B"/>
<path d="M68.5677 29.617C68.5728 29.6259 68.6237 29.6985 68.6798 29.7775L68.7817 29.9214L68.7957 29.8271C68.8046 29.7762 68.8148 29.7036 68.8199 29.6667L68.8288 29.6004H68.6925C68.5843 29.6004 68.5601 29.6042 68.5677 29.617Z" fill="black"/>
<path d="M8.10349 35.3651C7.96466 35.3867 7.77488 35.4338 7.66407 35.4759L7.58128 35.5064L7.57236 35.6899C7.56727 35.7905 7.55708 35.9968 7.54944 36.1471C7.44882 38.1659 6.74829 40.4623 5.70387 42.2086C5.11161 43.1969 4.46076 43.9357 3.87104 44.2847C3.44563 44.5381 3.09282 44.6451 2.27639 44.7699C1.70451 44.8578 1.47397 44.91 1.20395 45.0196C0.902087 45.1406 0.653719 45.3074 0.433372 45.538C0.25633 45.7227 0.137878 45.9201 0.0665515 46.1455C-0.109217 46.7085 0.0690989 47.3606 0.531446 47.8446C0.830761 48.1567 1.18484 48.3554 1.58733 48.4381C1.84206 48.4904 1.86244 48.4891 2.53113 48.3808C5.99682 47.8242 10.2382 47.2294 13.3256 46.8664C16.641 46.4754 18.9756 46.2742 21.2479 46.1812C21.8019 46.1583 27.3527 46.1583 28.2595 46.1812C30.0197 46.2245 31.1686 46.2818 32.4436 46.3888C37.1218 46.7798 40.5709 47.7656 43.1106 49.438C43.871 49.9385 44.4595 50.4837 45.09 51.2721C45.3854 51.6402 45.6415 51.9968 46.1802 52.7941C46.5916 53.4004 46.7878 53.6819 47.0145 53.985C47.7545 54.9747 48.4792 55.6574 49.3364 56.1694C49.423 56.2203 49.4982 56.2726 49.5045 56.284C49.5262 56.3235 49.7096 56.8776 49.7911 57.1438C50.1732 58.406 50.4356 59.8376 50.5604 61.3469C50.7731 63.8905 50.8495 66.3538 50.8177 69.5622C50.782 73.0126 50.6929 74.7282 50.4713 76.1471C50.3044 77.2221 50.0025 78.4907 49.6268 79.7032C49.581 79.8523 49.5427 79.9796 49.5427 79.9873C49.5427 79.9962 49.7847 79.9987 50.3477 79.9975L51.1514 79.9936L51.2074 79.8281C51.8137 78.0271 52.1895 75.5014 52.3194 72.3643C52.3665 71.2269 52.3805 69.5036 52.3589 67.5625C52.3283 64.8113 52.2722 63.0957 52.1589 61.5189C52.0443 59.8987 51.7933 58.3474 51.4596 57.1896C51.4354 57.103 51.4163 57.0291 51.4202 57.0266C51.4227 57.024 51.4813 57.0355 51.5501 57.0533C51.7309 57.0979 51.9513 57.145 52.1907 57.1883C52.3066 57.2087 52.4047 57.2304 52.4098 57.2355C52.4149 57.2418 52.448 57.3718 52.4837 57.5259C52.7754 58.7945 52.9549 60.114 53.0326 61.5316C53.0454 61.7685 53.0874 62.9632 53.1727 65.4545C53.1931 66.0748 53.216 66.7448 53.2237 66.9448C53.2301 67.1447 53.2364 67.8198 53.2364 68.4439C53.2364 69.3635 53.2326 69.6157 53.2173 69.7621C53.2071 69.8628 53.1868 70.3085 53.1727 70.7531C53.0823 73.6201 52.9842 75.6746 52.8976 76.5356C52.8416 77.1024 52.5576 78.5684 52.2926 79.6548C52.2519 79.8255 52.2175 79.9733 52.2175 79.9822C52.2175 79.9975 52.7766 80 55.7647 80C57.716 80 59.3119 79.9962 59.3119 79.9924C59.3119 79.9885 59.275 79.8102 59.2304 79.595C58.9654 78.3353 58.7502 77.0081 58.6241 75.8542C58.6101 75.7204 58.5897 75.5778 58.5795 75.5357C58.4967 75.1906 58.4241 73.7093 58.3643 71.097C58.3388 70.0169 58.3312 62.5633 58.3541 62.213C58.4407 60.9432 58.5681 59.951 58.8228 58.5512C59.0024 57.5654 59.1692 56.8865 59.401 56.2012C59.4354 56.0968 59.4647 56.0064 59.4647 56.0025C59.4647 55.9975 59.4469 55.9911 59.424 55.9885C59.3845 55.9847 59.387 55.9822 59.5042 55.8943C60.1754 55.3899 60.8862 54.6754 61.5803 53.8067C61.8733 53.4399 62.1025 53.1355 62.6617 52.3675C63.5966 51.0849 63.8984 50.7066 64.3366 50.2646C64.627 49.9729 64.8155 49.8163 65.1581 49.5819C67.3794 48.065 70.8132 47.018 75.2966 46.4894C76.9944 46.2894 78.6375 46.1774 80.9008 46.1048C81.5784 46.0831 84.6098 46.0831 85.3587 46.1048C89.2371 46.2168 92.7104 46.469 96.5607 46.9174C98.0076 47.0855 98.1223 47.1021 102.505 47.8026C104.859 48.1783 106.764 48.4764 106.81 48.4764C106.95 48.4764 107.168 48.4509 107.253 48.4254C107.363 48.3936 107.457 48.335 107.642 48.186C107.95 47.9363 108.165 47.6854 108.309 47.4065C108.527 46.9849 108.569 46.5709 108.434 46.1774C108.358 45.957 108.243 45.7812 108.038 45.5775C107.751 45.2921 107.37 45.0782 106.858 44.9126C106.59 44.826 106.451 44.7941 105.82 44.6744C105.133 44.5432 104.719 44.4018 104.394 44.1866C104.247 44.0898 104.027 43.8758 103.874 43.6848C103.698 43.4631 103.049 42.5665 102.891 42.3245C102.04 41.0304 101.48 39.6052 101.224 38.0933C101.145 37.6284 101.1 37.2106 101.044 36.4082C100.996 35.7153 100.931 35.5319 100.698 35.4249C100.572 35.3663 100.468 35.3523 100.178 35.3536C99.8723 35.3549 99.6532 35.374 98.675 35.4848C95.7876 35.8134 94.5432 35.9038 89.5491 36.1471C85.1676 36.3611 83.3577 36.4795 81.2027 36.6948C78.9877 36.9164 77.3523 37.1622 75.1374 37.6055C70.4057 38.5505 65.8752 39.8191 62.8031 41.0559C60.9206 41.815 59.545 42.5601 58.6305 43.3192C58.4623 43.458 58.065 43.858 57.9656 43.9879L57.8866 44.0911L58.4751 44.6782C58.7986 45.0018 59.0673 45.2667 59.0724 45.2667C59.0775 45.2667 59.1883 45.1966 59.3208 45.11C62.8209 42.8161 67.545 41.0164 73.2269 39.8102C76.6251 39.0893 79.9532 38.6168 84.4098 38.2207L85.0212 38.1659L86.2248 38.1697C87.4908 38.1735 87.622 38.1697 88.1608 38.1149C89.0052 38.0283 89.7644 37.9901 91.3259 37.9557C93.7255 37.9022 94.1344 37.8742 96.0449 37.6233C97.4893 37.4348 97.9771 37.3762 98.5031 37.3329C98.8967 37.2998 99.3081 37.2781 99.3183 37.2896C99.3272 37.2998 99.6634 39.5861 99.6621 39.6268C99.6621 39.6472 99.6456 39.6497 99.5004 39.6497C98.8457 39.6485 95.8755 39.6204 94.249 39.5988C90.7489 39.5529 90.107 39.5478 88.2117 39.5478C85.9612 39.5478 84.7779 39.5644 83.168 39.6179C77.8401 39.7962 73.465 40.3413 69.5714 41.3132C68.2672 41.6392 66.1197 42.3869 64.4512 43.0976C61.8682 44.1981 60.3156 45.2272 59.9997 46.0462C59.978 46.1022 59.9627 46.157 59.9666 46.1672C59.9704 46.1774 60.113 46.3722 60.2824 46.6002L60.5919 47.0142L60.662 47.0065C60.9282 46.976 61.3167 46.7976 62.2987 46.2601C64.1328 45.2539 65.0791 44.789 66.4063 44.2414C70.5954 42.5117 75.4609 41.5819 81.0409 41.4456C81.8484 41.4253 93.0288 41.4354 93.3128 41.4558C93.8822 41.4978 94.1395 41.5284 94.5267 41.5997C94.6757 41.6278 94.8616 41.6583 94.9406 41.6685C95.4208 41.7322 96.1608 41.6927 97.7771 41.5157C98.0611 41.4851 98.3592 41.452 98.4394 41.4444C98.6139 41.4278 100.074 41.4138 100.335 41.4265C100.493 41.4342 100.516 41.438 100.516 41.4571C100.516 41.4991 100.629 41.8774 100.694 42.0532C100.77 42.2595 100.984 42.7002 101.114 42.9167C101.165 43.0008 101.313 43.2301 101.444 43.4262C101.574 43.6224 101.683 43.7879 101.686 43.793C101.694 43.8121 100.759 43.7777 100.312 43.7434C99.7105 43.6975 99.1934 43.6364 98.0204 43.4695C96.7747 43.2937 96.618 43.2772 95.1533 43.1587C92.7028 42.9613 91.6838 42.8632 90.5107 42.7129C89.5147 42.5856 88.953 42.5512 87.0336 42.4964C85.6109 42.4557 85.2593 42.4366 84.3079 42.3448C83.1298 42.2302 81.0269 42.3015 78.5063 42.541C74.6852 42.9053 70.5458 43.5816 68.4149 44.1917C68.1385 44.2707 67.6723 44.4235 67.2851 44.5598C65.3224 45.2565 63.9952 45.9405 62.9559 46.7925C62.6948 47.0065 62.4719 47.209 61.9994 47.6612C61.2912 48.3388 60.9779 48.6088 60.5104 48.9451C60.3092 49.089 60.2582 49.1221 60.2493 49.1119C60.2468 49.1094 60.1449 48.9234 60.0252 48.6993C59.9042 48.4751 59.7398 48.1745 59.6583 48.0306C58.7604 46.4359 58.1286 45.7125 57.2472 45.2743C56.4206 44.8616 55.3711 44.6999 53.4784 44.6897C52.904 44.6871 52.8276 44.6922 52.5423 44.7508C51.024 45.0654 49.3581 46.5047 48.6856 48.0828C48.5531 48.3948 48.4219 48.8839 48.4219 49.0712C48.4219 49.0928 48.4168 49.1145 48.4117 49.1183C48.4053 49.1221 48.3238 49.0992 48.2296 49.0673C47.7812 48.9171 47.4934 48.7209 47.0782 48.2789C46.598 47.7682 46.4515 47.6166 46.263 47.4434C45.1473 46.413 43.7348 45.5787 41.837 44.8273C38.4872 43.5014 33.9007 42.62 30.3356 42.6174C29.3269 42.6161 28.8734 42.5881 27.6227 42.4455C26.5693 42.3257 26.2637 42.3015 25.6739 42.2901C25.1033 42.2799 24.7594 42.299 23.9927 42.3805C23.1368 42.4722 22.1344 42.5397 19.2355 42.7002C16.05 42.8772 14.9062 42.9473 13.4784 43.0568C10.2726 43.3039 8.19137 43.616 7.20045 43.9981C7.12021 44.0299 7.03742 44.0643 7.01449 44.0758L6.97373 44.0962L6.98265 44.0223C7.00812 43.8007 7.09091 43.4899 7.19281 43.2364C7.32782 42.8951 7.45773 42.648 7.8462 41.9806C7.97867 41.7526 8.10221 41.5361 8.12132 41.4978L8.15444 41.4291L8.54291 41.4367C9.10206 41.4482 9.4918 41.48 10.4152 41.5921C11.4444 41.7169 11.5564 41.7258 12.0837 41.7348C12.3767 41.7386 12.6518 41.7348 12.9626 41.7207C17.8701 41.5004 20.1334 41.4227 22.5611 41.3934C25.9669 41.3539 28.9982 41.4851 31.6985 41.7908C36.7817 42.3652 41.1887 43.6325 44.9982 45.6169C45.7039 45.985 45.8185 46.05 46.314 46.3748C46.5037 46.4983 46.7012 46.6244 46.7534 46.655C47.0056 46.8015 47.3163 46.9186 47.6067 46.9772C47.7876 47.0142 48.0857 47.0549 48.1099 47.0447C48.1188 47.0422 48.1302 47.018 48.1341 46.9925C48.1493 46.9161 48.2563 46.5926 48.2958 46.5034C48.3162 46.4576 48.3671 46.3748 48.4079 46.3187C48.4971 46.1952 48.5327 46.1251 48.5862 45.9774C48.6435 45.8118 48.7047 45.5966 48.6983 45.58C48.6945 45.5711 48.669 45.5571 48.641 45.5494C48.5531 45.5227 48.171 45.3214 47.5431 44.9712C46.463 44.37 46.0185 44.1318 45.2886 43.765C43.2342 42.732 41.5377 42.0774 39.0667 41.3628C36.5448 40.633 34.2216 40.1809 32.0678 40C31.0196 39.9134 28.9715 39.8089 27.0177 39.7453C23.7469 39.6383 20.6913 39.6166 12.476 39.6421C10.4318 39.6485 8.75943 39.6497 8.75943 39.6459C8.75943 39.6039 9.04092 38.2436 9.09059 38.0487C9.15428 37.794 9.25108 37.4921 9.31221 37.3533C9.34533 37.2807 9.34533 37.2807 9.39246 37.2871C9.4192 37.2909 9.5695 37.3049 9.72743 37.3189C10.1172 37.3546 10.7604 37.4259 11.9182 37.5609C14.8374 37.901 15.175 37.9264 17.5542 37.9812C18.8062 38.0105 19.4635 38.0423 20.1525 38.1086C20.3703 38.1302 25.2702 38.4308 26.1707 38.4779C28.8174 38.6181 32.6563 39.2116 36.22 40.0331C41.0065 41.1361 44.9575 42.5295 47.4921 44.0096C48.1417 44.3891 48.6983 44.7712 49.1505 45.1469C49.223 45.2081 49.288 45.259 49.2957 45.2629C49.3046 45.2654 49.3504 45.2438 49.3975 45.2119C49.4459 45.1813 49.6115 45.0858 49.7656 44.9992C50.1095 44.8069 50.2484 44.7139 50.3643 44.598C50.47 44.4935 50.5451 44.3878 50.6203 44.2363C50.6712 44.1318 50.7527 43.914 50.7706 43.8338C50.7782 43.7956 50.7769 43.7956 50.6992 43.7726C50.4458 43.6975 49.8854 43.4313 49.288 43.0989C47.4297 42.0672 46.7916 41.7335 45.6835 41.2164C42.1146 39.5504 37.993 38.3302 33.2332 37.5303C30.4592 37.0642 28.0481 36.8043 22.2286 36.3445C21.6478 36.2987 20.7473 36.2261 20.2289 36.1853C18.9311 36.0796 18.8814 36.0783 17.9554 36.0911C16.7734 36.1076 15.6552 36.1063 15.4208 36.086C15.1291 36.0605 14.8858 36.0287 14.4655 35.9573C13.7077 35.8287 13.5205 35.8134 12.2047 35.7714C11.0801 35.7357 10.7196 35.7013 9.96306 35.5599C8.86642 35.3562 8.78618 35.3447 8.44993 35.346C8.32256 35.3472 8.16717 35.3549 8.10349 35.3651Z" fill="#081831"/>
<path d="M31.9786 55.8956C31.9786 55.8981 32.0156 55.9567 32.0601 56.0255C32.4741 56.6598 32.8269 57.5463 33.0804 58.583C33.2421 59.2479 33.3733 60.1484 33.4357 61.0158C33.4803 61.6259 33.4828 61.9965 33.479 66.6302L33.4752 71.2129L28.5384 65.9487C25.8229 63.0537 23.4959 60.5751 23.3673 60.4426C22.0172 59.0428 21.1472 58.0086 20.6314 57.1883C20.4913 56.9667 20.3028 56.591 20.248 56.4267C20.2072 56.2993 20.1716 56.1223 20.1716 56.0408V55.9911H15.7965C13.3905 55.9911 11.4214 55.9936 11.4214 55.9962C11.4214 56 11.4634 56.0318 11.5144 56.0688C11.8876 56.3388 12.569 56.9132 13.3319 57.601C14.4528 58.6136 16.0525 60.1382 17.2421 61.3278C18.0636 62.1493 18.484 62.5964 18.917 63.1097C19.0087 63.218 21.1434 65.4673 23.6615 68.1089C28.4734 73.1578 28.5384 73.2253 28.7702 73.4787C30.4986 75.3638 32.5238 77.8933 33.6955 79.6332L33.9414 80H35.1361C35.7933 80 36.3333 79.9975 36.3372 79.9936C36.341 79.9898 36.3333 79.9198 36.3206 79.837C36.0328 77.9927 35.8634 75.9943 35.7997 73.6825C35.7831 73.089 35.7831 65.1527 35.7997 64.3528C35.8468 62.0424 35.9576 60.4095 36.1436 59.3027C36.341 58.1245 36.7065 56.9514 37.1549 56.056L37.2389 55.8892H34.6088C33.1619 55.8892 31.9786 55.8917 31.9786 55.8956Z" fill="#081831"/>
<path d="M7.43481 55.9962C7.43481 55.9987 7.60294 56.1274 7.808 56.2815C9.51729 57.5641 10.9464 58.7881 12.0545 59.9178C12.6072 60.4821 12.9155 60.8476 13.1944 61.2705C13.6134 61.9048 13.8325 62.5136 13.9357 63.3275C14.0019 63.8497 13.9994 63.6574 14.0032 67.2313C14.0083 70.1226 14.0057 70.5989 13.9892 70.8868C13.9777 71.0689 13.9319 72.2955 13.886 73.6125L13.802 76.007L13.6873 76.7585C13.5638 77.5634 13.5574 77.5902 13.4097 78.0271C13.1982 78.6524 12.9333 79.2269 12.5894 79.8089C12.5334 79.9032 12.485 79.9847 12.4824 79.9898C12.4799 79.9962 13.6695 80 15.1266 80C16.5849 80 17.7771 79.9949 17.7771 79.9898C17.7771 79.9847 17.7389 79.9172 17.6931 79.8395C17.5988 79.6829 17.4077 79.2995 17.3377 79.1275C17.1543 78.683 17.0218 78.2181 16.855 77.4463C16.5735 76.1395 16.4015 74.7142 16.3519 73.2622C16.3442 73.0457 16.3429 71.2281 16.348 68.5101L16.357 64.107L21.2377 69.2361C23.9226 72.0573 26.1809 74.4315 26.2547 74.5117C26.3859 74.6505 27.0381 75.4198 27.8723 76.4146C29.4479 78.2945 30.4999 79.6052 30.6948 79.9312L30.7368 80H31.7647C32.3315 80 32.7938 79.9949 32.7938 79.9898C32.7938 79.9834 32.7493 79.9249 32.6945 79.8586C32.6397 79.7924 32.4181 79.5122 32.2016 79.2358C31.5494 78.4015 31.04 77.7583 30.3216 76.8604C29.7574 76.1573 29.5434 75.9013 29.1065 75.4084C27.978 74.1385 27.1145 73.1718 26.1821 72.1414C25.9325 71.865 24.4372 70.2793 22.8591 68.6196C21.281 66.9588 19.7857 65.3807 19.5361 65.1107C18.2535 63.7249 17.4167 62.8537 16.0449 61.4768C15.1279 60.5547 14.2184 59.6618 13.8223 59.295C12.3767 57.9538 11.1209 56.8878 10.1159 56.1503L9.89939 55.9911H8.66774C7.98887 55.9911 7.43481 55.9936 7.43481 55.9962Z" fill="#081831"/>
<path d="M80.7734 56.0051C80.7734 56.0127 80.8155 56.1337 80.8677 56.2751C81.3122 57.4877 81.637 58.8709 81.823 60.3534C81.9924 61.6908 82.1286 64.0318 82.1758 66.378C82.1923 67.211 82.1834 70.3417 82.163 71.2371C82.1134 73.2864 82.0395 74.6161 81.9185 75.574C81.7618 76.8311 81.4383 78.2652 80.981 79.7389C80.9428 79.865 80.9072 79.9758 80.9046 79.9834C80.8995 79.9962 81.0651 80 81.7083 80H82.5171L82.6063 79.7262C83.1196 78.1532 83.4673 76.0299 83.6265 73.5042C83.7207 71.9975 83.7475 70.5964 83.7284 68.1598C83.7055 65.2482 83.6532 63.4536 83.5424 61.7672C83.3998 59.5765 83.0597 57.7131 82.5553 56.363C82.498 56.2114 82.4407 56.065 82.428 56.0395L82.4038 55.9911H81.5886C81.0116 55.9911 80.7734 55.9949 80.7734 56.0051Z" fill="#081831"/>
<path d="M83.4353 55.9962C83.4353 56 83.4722 56.1261 83.5181 56.2789C84.0365 57.9997 84.3345 59.8784 84.416 61.9328C84.43 62.2894 84.5561 65.9475 84.588 66.9129C84.6147 67.7281 84.6147 69.4858 84.588 69.7086C84.5765 69.7978 84.5574 70.2067 84.5434 70.6321C84.4351 73.9067 84.3447 75.7943 84.2568 76.6069C84.2199 76.9406 84.0479 77.8997 83.9002 78.5951C83.8034 79.0435 83.6111 79.879 83.5805 79.9771C83.5741 79.9987 83.7486 80 87.1201 80C89.0701 80 90.6685 79.9975 90.6724 79.9936C90.6762 79.9898 90.666 79.9249 90.6494 79.8497C90.3743 78.5964 90.0801 76.8043 89.982 75.7777C89.9731 75.6937 89.9591 75.5918 89.9489 75.5523C89.8789 75.2708 89.819 74.2735 89.7655 72.4598C89.7579 72.2114 89.7464 71.8242 89.7388 71.6001C89.7311 71.3683 89.7209 69.5978 89.7146 67.4861C89.7082 65.4469 89.6993 63.6306 89.6955 63.4485C89.6738 62.6652 89.754 61.4692 89.9069 60.3152C90.0406 59.295 90.275 57.9997 90.4584 57.2584C90.5501 56.8903 90.7552 56.2012 90.829 56.0127C90.8379 55.9924 90.6571 55.9911 87.1366 55.9911C85.1013 55.9911 83.4353 55.9936 83.4353 55.9962Z" fill="#081831"/>
</svg>
