<svg width="55" height="50" viewBox="0 0 55 50" fill="none" xmlns="http://www.w3.org/2000/svg">
<path d="M46.8622 17.0777C47.0377 16.9789 47.1776 16.8273 47.2618 16.6444C47.346 16.4615 47.3703 16.2566 47.3312 16.0591C47.2921 15.8616 47.1916 15.6814 47.0441 15.5444C46.8966 15.4073 46.7096 15.3203 46.5097 15.2959L43.0938 14.153C42.8685 14.08 42.6606 13.9613 42.4831 13.8044C42.3056 13.6475 42.1623 13.4558 42.0621 13.2411C41.9619 13.0264 41.9069 12.7935 41.9007 12.5566C41.8944 12.3198 41.9369 12.0843 42.0256 11.8646L43.3437 8.51202C43.7132 7.57334 43.1994 6.93575 42.2043 7.09768L38.6478 7.67328C38.4143 7.71316 38.1751 7.70459 37.9451 7.64811C37.715 7.59163 37.499 7.48844 37.3106 7.34497C37.1221 7.20149 36.9651 7.02078 36.8494 6.81408C36.7337 6.60737 36.6617 6.37908 36.638 6.14339L36.2467 2.56149C36.1384 1.55808 35.3882 1.23429 34.5811 1.83949L31.7008 4.00269C31.5124 4.14639 31.2965 4.24984 31.0664 4.30659C30.8364 4.36335 30.5972 4.37221 30.3636 4.33262C30.1299 4.29303 29.9069 4.20583 29.7085 4.07645C29.51 3.94707 29.3402 3.77826 29.2097 3.58051L27.1998 0.59115C27.123 0.404996 26.9893 0.247866 26.8179 0.142184C26.6465 0.0365019 26.4461 -0.0123349 26.2452 0.00265023C26.0444 0.0176353 25.8534 0.095676 25.6996 0.225629C25.5457 0.355582 25.4369 0.53081 25.3885 0.726305L23.8417 3.9802C23.7418 4.19498 23.5989 4.38693 23.4217 4.5441C23.2444 4.70128 23.0368 4.82032 22.8116 4.89385C22.5864 4.96737 22.3485 4.99379 22.1127 4.97147C21.8769 4.94915 21.6481 4.87857 21.4407 4.76411L18.2712 3.05128C17.3845 2.57133 16.6907 3.0049 16.73 4.0126L16.8736 7.61277C16.885 7.84941 16.8476 8.08587 16.7637 8.30744C16.6798 8.529 16.5512 8.73094 16.386 8.90069C16.2207 9.07045 16.0223 9.20439 15.8031 9.29419C15.5838 9.38398 15.3484 9.42771 15.1116 9.42266L11.51 9.37909C10.5015 9.36636 10.0884 10.0715 10.5924 10.9455L12.3924 14.0671C12.5124 14.2715 12.589 14.4983 12.6177 14.7335C12.6463 14.9687 12.6263 15.2073 12.5588 15.4345C12.4914 15.6616 12.378 15.8725 12.2256 16.0539C12.0733 16.2354 11.8853 16.3836 11.6732 16.4894L8.46421 18.1233C8.27025 18.1771 8.09823 18.2908 7.97265 18.4481C7.84707 18.6054 7.77437 18.7983 7.76486 18.9993C7.75535 19.2004 7.80951 19.3993 7.91969 19.5678C8.02986 19.7362 8.19041 19.8656 8.37842 19.9375L11.4226 21.8642C11.6239 21.9894 11.7973 22.1547 11.9321 22.3497C12.0668 22.5447 12.16 22.7653 12.206 22.9979C12.2519 23.2304 12.2496 23.4699 12.1991 23.7015C12.1486 23.9331 12.051 24.1518 11.9124 24.3441L9.82953 27.2829C9.24683 28.1062 9.5916 28.8465 10.598 28.9281L14.1882 29.2195C14.4246 29.2366 14.655 29.3021 14.8649 29.412C15.0749 29.522 15.2599 29.674 15.4086 29.8585C15.5573 30.0431 15.6663 30.2563 15.729 30.4849C15.7917 30.7134 15.8067 30.9524 15.773 31.187L15.2959 34.7576C15.1622 35.7569 15.8124 36.2523 16.7414 35.8583L20.0558 34.448C20.273 34.3533 20.5075 34.3044 20.7444 34.3041C20.9814 34.3039 21.2158 34.3524 21.4332 34.4466C21.6507 34.5409 21.8464 34.6789 22.0082 34.852C22.17 35.0251 22.2945 35.2296 22.3739 35.4529L23.6096 38.8363C23.6396 39.0353 23.7317 39.2197 23.8728 39.3633C24.0139 39.5068 24.1967 39.6022 24.3951 39.6357C24.5935 39.6693 24.7975 39.6393 24.9779 39.5501C25.1583 39.4609 25.306 39.317 25.3998 39.139L27.6799 36.3494C27.8282 36.1647 28.013 36.0125 28.2227 35.9023C28.4324 35.792 28.6625 35.7261 28.8988 35.7085C29.1351 35.691 29.3724 35.7222 29.5961 35.8002C29.8198 35.8783 30.025 36.0015 30.1991 36.1623L32.8661 38.5844C33.6134 39.2628 34.3904 39.0081 34.593 38.0201L35.3151 34.4902C35.3606 34.2577 35.4534 34.0371 35.5879 33.842C35.7223 33.647 35.8954 33.4817 36.0964 33.3564C36.2975 33.2311 36.5222 33.1485 36.7565 33.1138C36.9908 33.0791 37.2298 33.093 37.4585 33.1546L40.9448 34.0582C41.9229 34.3115 42.4929 33.726 42.2114 32.7563L41.2107 29.2969C41.1431 29.0697 41.1229 28.8311 41.1514 28.5959C41.1799 28.3606 41.2564 28.1337 41.3762 27.9293C41.4961 27.7248 41.6567 27.5472 41.848 27.4074C42.0394 27.2677 42.2575 27.1687 42.4887 27.1167L45.9966 26.2962C46.9798 26.0669 47.2119 25.2843 46.5132 24.5567L44.0185 21.9572C43.853 21.7876 43.7242 21.5858 43.6401 21.3643C43.5559 21.1428 43.5181 20.9064 43.5292 20.6697C43.5403 20.433 43.5999 20.2012 43.7045 19.9885C43.809 19.7759 43.9561 19.587 44.1367 19.4336L46.8622 17.0777Z" fill="#CC3D2B"/>
<path d="M42.4885 30.4678L43.4891 33.9273C43.7692 34.897 43.1992 35.4825 42.2225 35.2291L38.7363 34.3242C38.5074 34.2628 38.2684 34.2491 38.034 34.284C37.7996 34.3189 37.5749 34.4017 37.3738 34.527C37.1727 34.6524 36.9996 34.8178 36.8651 35.0129C36.7307 35.208 36.6377 35.4287 36.5921 35.6612L35.9707 38.6942L46.1689 50L46.9768 43.1093L54.0729 42.8728L42.4195 29.9498C42.4164 30.125 42.4396 30.2996 42.4885 30.4678Z" fill="#CC3D2B"/>
<path d="M18.7778 35.8315L15.4634 37.2418C14.5345 37.6372 13.8843 37.1417 14.018 36.1411L14.4965 32.5705C14.5298 32.3359 14.5146 32.097 14.4517 31.8686C14.3887 31.6401 14.2795 31.4271 14.1307 31.2427C13.982 31.0583 13.7969 30.9065 13.5869 30.7966C13.377 30.6868 13.1467 30.6213 12.9104 30.6043L12.3938 30.5621L0 41.7399L6.89079 42.5477L7.12729 49.6425L21.1536 36.994L21.0959 36.8364C21.0166 36.6131 20.8921 36.4085 20.7303 36.2353C20.5685 36.0621 20.3728 35.9241 20.1554 35.8299C19.9379 35.7356 19.7034 35.6871 19.4664 35.6874C19.2294 35.6877 18.995 35.7367 18.7778 35.8315Z" fill="#CC3D2B"/>
</svg>
