<svg width="20" height="20" viewBox="0 0 20 20" fill="none" xmlns="http://www.w3.org/2000/svg">
<path d="M15.0624 1.29504L18.5399 4.92004V18.705H5.54932V18.75H18.5843V4.96567L15.0624 1.29504Z" fill="#909090"/>
<path d="M15.0193 1.25H5.50488V18.705H18.5399V4.92063L15.0186 1.25" fill="#F4F4F4"/>
<path d="M5.40928 2.1875H1.41553V6.45437H13.978V2.1875H5.40928Z" fill="#7A7B7C"/>
<path d="M14.0452 6.38182H1.49707V2.11182H14.0452V6.38182Z" fill="#DD2025"/>
<path d="M5.6577 2.8338H4.84082V5.8338H5.48332V4.82193L5.6252 4.83005C5.76305 4.82768 5.89961 4.80299 6.02957 4.75693C6.14351 4.71774 6.24833 4.65587 6.3377 4.57505C6.42863 4.49807 6.50033 4.4009 6.54707 4.2913C6.60975 4.10912 6.63215 3.91549 6.6127 3.7238C6.60879 3.58687 6.58479 3.45126 6.54145 3.3213C6.50199 3.2275 6.44344 3.14293 6.36952 3.07299C6.29559 3.00305 6.20792 2.94926 6.11207 2.91505C6.0292 2.88505 5.94358 2.86328 5.85645 2.85005C5.79046 2.83987 5.72383 2.83444 5.65707 2.8338M5.53895 4.26755H5.48332V3.34255H5.60395C5.65718 3.33872 5.7106 3.34689 5.76026 3.36647C5.80991 3.38605 5.85453 3.41654 5.89082 3.45568C5.96602 3.55631 6.00619 3.67881 6.0052 3.80443C6.0052 3.95818 6.0052 4.09755 5.86645 4.19568C5.76649 4.25066 5.65271 4.27541 5.53895 4.26693M7.83332 2.82568C7.76395 2.82568 7.69645 2.83068 7.64895 2.83255L7.5002 2.8363H7.0127V5.8363H7.58645C7.80571 5.84231 8.02402 5.80515 8.22895 5.72693C8.39389 5.66151 8.53995 5.55604 8.65395 5.42005C8.7648 5.28284 8.84436 5.12308 8.88707 4.95193C8.93617 4.7581 8.96012 4.55875 8.95832 4.3588C8.97044 4.12265 8.95217 3.88592 8.90395 3.65443C8.85818 3.48403 8.77248 3.32699 8.65395 3.1963C8.56094 3.09078 8.44709 3.00566 8.31957 2.9463C8.21006 2.89563 8.09486 2.85828 7.97645 2.83505C7.92936 2.82728 7.88167 2.82372 7.83395 2.82443M7.7202 5.28505H7.6577V3.37005H7.66582C7.79467 3.35523 7.92504 3.37848 8.04082 3.43693C8.12561 3.50463 8.1947 3.58993 8.24332 3.68693C8.29579 3.78901 8.32604 3.90106 8.33207 4.01568C8.3377 4.15318 8.33207 4.26568 8.33207 4.3588C8.33462 4.46608 8.32771 4.57337 8.31145 4.67943C8.29218 4.78832 8.25657 4.89368 8.20582 4.99193C8.14838 5.08328 8.07077 5.16025 7.97895 5.21693C7.90183 5.2668 7.81052 5.29007 7.71895 5.28318M10.8939 2.8363H9.3752V5.8363H10.0177V4.6463H10.8302V4.0888H10.0177V3.3938H10.8927V2.8363" fill="#464648"/>
<path d="M13.6129 12.6593C13.6129 12.6593 15.6054 12.2981 15.6054 12.9787C15.6054 13.6593 14.3711 13.3824 13.6129 12.6593ZM12.1398 12.7112C11.8232 12.7811 11.5147 12.8836 11.2192 13.0168L11.4692 12.4543C11.7192 11.8918 11.9786 11.1249 11.9786 11.1249C12.2769 11.627 12.624 12.0985 13.0148 12.5324C12.7201 12.5764 12.428 12.6365 12.1398 12.7124V12.7112ZM11.3511 8.6487C11.3511 8.05557 11.5429 7.8937 11.6923 7.8937C11.8417 7.8937 12.0098 7.96557 12.0154 8.48057C11.9668 8.99842 11.8583 9.5089 11.6923 10.0018C11.4649 9.58797 11.3472 9.12278 11.3504 8.65057L11.3511 8.6487ZM8.44543 15.2212C7.83418 14.8556 9.72731 13.7299 10.0704 13.6937C10.0686 13.6943 9.08543 15.6037 8.44543 15.2212ZM16.1873 13.0593C16.1811 12.9968 16.1248 12.3049 14.8936 12.3343C14.3804 12.326 13.8674 12.3622 13.3604 12.4424C12.8693 11.9477 12.4465 11.3896 12.1029 10.7831C12.3194 10.1577 12.4503 9.50599 12.4923 8.84557C12.4742 8.09557 12.2948 7.66557 11.7198 7.67182C11.1448 7.67807 11.0611 8.1812 11.1367 8.92995C11.2108 9.4331 11.3505 9.92437 11.5523 10.3912C11.5523 10.3912 11.2867 11.2181 10.9354 12.0406C10.5842 12.8631 10.3442 13.2943 10.3442 13.2943C9.73339 13.4932 9.15839 13.7886 8.64106 14.1693C8.12606 14.6487 7.91668 15.0168 8.18793 15.3849C8.42168 15.7024 9.23981 15.7743 9.97106 14.8162C10.3596 14.3213 10.7146 13.801 11.0336 13.2587C11.0336 13.2587 12.1486 12.9531 12.4954 12.8693C12.8423 12.7856 13.2617 12.7193 13.2617 12.7193C13.2617 12.7193 14.2798 13.7437 15.2617 13.7074C16.2436 13.6712 16.1961 13.1206 16.1898 13.0606" fill="#DD2025"/>
<path d="M14.9712 1.2981V4.96872H18.4918L14.9712 1.2981Z" fill="#909090"/>
<path d="M15.0195 1.25V4.92063H18.5402L15.0195 1.25Z" fill="#F4F4F4"/>
<path d="M5.60936 2.78559H4.79248V5.78559H5.43748V4.77434L5.57998 4.78246C5.71784 4.78009 5.8544 4.75539 5.98436 4.70934C6.09829 4.67013 6.2031 4.60826 6.29248 4.52746C6.38273 4.45027 6.45378 4.35312 6.49998 4.24371C6.56266 4.06152 6.58506 3.8679 6.56561 3.67621C6.5617 3.53928 6.5377 3.40366 6.49436 3.27371C6.4549 3.1799 6.39635 3.09534 6.32243 3.02539C6.2485 2.95545 6.16083 2.90167 6.06498 2.86746C5.98173 2.83717 5.89569 2.81519 5.80811 2.80184C5.74212 2.79166 5.67549 2.78623 5.60873 2.78559M5.49061 4.21934H5.43498V3.29434H5.55623C5.60947 3.2905 5.66289 3.29867 5.71254 3.31825C5.7622 3.33783 5.80682 3.36832 5.84311 3.40746C5.9183 3.5081 5.95848 3.63059 5.95748 3.75621C5.95748 3.90996 5.95748 4.04934 5.81873 4.14746C5.71877 4.20244 5.60499 4.22719 5.49123 4.21871M7.78498 2.77746C7.71561 2.77746 7.64811 2.78246 7.60061 2.78434L7.45373 2.78809H6.96623V5.78809H7.53998C7.75925 5.7941 7.97755 5.75693 8.18248 5.67871C8.34743 5.61329 8.49349 5.50782 8.60748 5.37184C8.71833 5.23462 8.79789 5.07486 8.84061 4.90371C8.88971 4.70988 8.91365 4.51053 8.91186 4.31059C8.92398 4.07443 8.9057 3.8377 8.85748 3.60621C8.81172 3.43581 8.72602 3.27877 8.60748 3.14809C8.51448 3.04256 8.40063 2.95744 8.27311 2.89809C8.16359 2.84741 8.04839 2.81006 7.92998 2.78684C7.88289 2.77906 7.8352 2.7755 7.78748 2.77621M7.67373 5.23684H7.61123V3.32184H7.61936C7.7482 3.30701 7.87857 3.33026 7.99436 3.38871C8.07914 3.45642 8.14823 3.54171 8.19686 3.63871C8.24933 3.7408 8.27958 3.85284 8.28561 3.96746C8.29123 4.10496 8.28561 4.21746 8.28561 4.31059C8.28815 4.41786 8.28125 4.52515 8.26498 4.63121C8.24572 4.7401 8.21011 4.84546 8.15936 4.94371C8.10191 5.03506 8.0243 5.11203 7.93248 5.16871C7.85537 5.21859 7.76406 5.24185 7.67248 5.23496M10.8456 2.78809H9.32686V5.78809H9.96936V4.59809H10.7819V4.04059H9.96936V3.34559H10.8444V2.78809" fill="white"/>
</svg>
